<?xml version="1.0" encoding="utf-8"?>
<!-- Generator: Adobe Illustrator 21.0.2, SVG Export Plug-In . SVG Version: 6.00 Build 0)  -->
<svg version="1.1" id="Layer_1" xmlns="http://www.w3.org/2000/svg" xmlns:xlink="http://www.w3.org/1999/xlink" x="0px" y="0px"
	 viewBox="0 0 75.667 55.903" style="enable-background:new 0 0 75.667 55.903;" xml:space="preserve">
<path d="M46.645,27.449c0.342,0,0.686-0.116,0.967-0.354c0.633-0.534,0.712-1.48,0.177-2.113l-8.81-10.427
	c-0.285-0.338-0.704-0.532-1.146-0.532c-0.441,0-0.861,0.194-1.146,0.532l-8.81,10.427c-0.535,0.633-0.456,1.579,0.177,2.113
	c0.633,0.535,1.58,0.456,2.114-0.178l6.165-7.295v34.781c0,0.828,0.671,1.5,1.5,1.5c0.829,0,1.5-0.672,1.5-1.5V19.621l6.165,7.295
	C45.795,27.268,46.218,27.449,46.645,27.449z M74.167,0H1.5C0.671,0,0,0.672,0,1.5v38.471c0,0.828,0.671,1.5,1.5,1.5h27.523
	c0.829,0,1.5-0.672,1.5-1.5s-0.671-1.5-1.5-1.5H3V3h69.667v35.471H46.644c-0.829,0-1.5,0.672-1.5,1.5s0.671,1.5,1.5,1.5h27.523
	c0.829,0,1.5-0.672,1.5-1.5V1.5C75.667,0.672,74.996,0,74.167,0z"/>
</svg>
