<?xml version="1.0" encoding="utf-8"?>
<!-- Generator: Adobe Illustrator 21.0.2, SVG Export Plug-In . SVG Version: 6.00 Build 0)  -->
<svg version="1.1" id="Layer_1" xmlns="http://www.w3.org/2000/svg" xmlns:xlink="http://www.w3.org/1999/xlink" x="0px" y="0px"
	 viewBox="0 0 70 70" style="enable-background:new 0 0 70 70;" xml:space="preserve">
<path fill="#d3ab48" d="M35,0C15.7,0,0,15.7,0,35s15.7,35,35,35s35-15.7,35-35S54.3,0,35,0z M25.7,6.8c-1.4,1-2.2,3-3.4,3.4
	c-1.3,0.5-2.3-0.3-3.5-0.1C20.9,8.8,23.2,7.6,25.7,6.8z M35,64.7C18.6,64.7,5.3,51.4,5.3,35c0-9.8,4.7-18.4,12-23.8
	c-0.8,1-1.8,2.6-1.6,2.8c0.5,0.8,2.2,0.4,2.6,0s2.6-1.3,3.5-1.3s3.5,1.6,4.8,1.3c2.3-0.5,2.1-2.1,3-2.6c0.7-0.4,1.9,0,3.3-0.6
	c1.3-0.6,0.8-3.6-0.3-4.4c-0.7-0.5-2.2-0.6-3.6-0.4c1.9-0.4,4-0.6,6-0.6c5.9,0,11.5,1.8,16.1,4.8c-0.6,1.9-4.4,0.2-6.9,1.8
	c-2.6,1.7-2.6,4.9-3.7,5.7c-3.8,2.7-10.5,3.3-12,3.9c-1.3,0.5-3.2,1.3-3.1,3.1c0.1,1.7,1.2,3,3,2.8c1.8-0.2,4.2-1.8,5.7-1.8
	s2.5,2.3,3.4,2.9c0.8,0.6,3.1,0.5,3.4,1.8c0.2,1.3-0.2,3.9-2.2,3.9s-6-3.6-7.2-4c-1.2-0.4-2.5,0.4-3.3-0.1s-2.3-2-3.7-1.8
	c-1.8,0.3-2.5,1.9-3.3,2.6c-0.9,0.7-3.3,1.3-3.7,2.7c-0.6,1.9-0.5,6.6,0.4,8.5c1.1,2.5,8,4.4,9,6.1c0.8,1.3-0.6,3.1,0.5,4.6
	s1.7,1.5,2.2,2.1c1,1.3-0.3,3.3,1.2,4.4c2.8,2.1,8.9,0.6,9.9-2.2c0.4-1.2-0.3-3.1,0-4.8c0.2-1.2,1.7-2.8,2.1-3.7
	c0.4-0.8,0-3.6,0.9-4.7c0.8-1.1,3.5-1.4,4.1-1.7c0.5-0.3,0.5-1.7,1-1.9c0.5-0.3,2,0.3,2.5,0c0.5-0.3,0.7-1.4,1.1-2.2
	c0.4-0.7,2.7-1.6,2.7-2.9c0-3.2-5.7-2.6-5.8-4c-0.1-1.6,1.4-2.6,3.3-2.8c1.4-0.1,3.9,1.1,4.2,2c0.5,1.3-0.4,1.6,0.7,2.9
	c1.2,1.4,3.5,1.6,4.1,2.6c0.4,0.7-0.4,1.5,0.4,2.6c0.3,0.4,1.3,1.1,2.4,1.3C61.9,54,49.7,64.7,35,64.7z"/>
</svg>
