<?xml version="1.0" encoding="utf-8"?>
<!-- Generator: Adobe Illustrator 21.0.2, SVG Export Plug-In . SVG Version: 6.00 Build 0)  -->
<svg version="1.1" id="Layer_1" xmlns="http://www.w3.org/2000/svg" xmlns:xlink="http://www.w3.org/1999/xlink" x="0px" y="0px"
	 viewBox="0 0 89.5 70.6" style="enable-background:new 0 0 89.5 70.6;" xml:space="preserve">
<path fill="#ffffff" d="M85,0C85,0,84.9,0,85,0L25.5,0C23,0,21,2,21,4.5v6.2h-6c-2.5,0-4.5,2-4.5,4.5v6.2h-6c-2.5,0-4.5,2-4.5,4.5v40.2
	c0,2.5,2,4.5,4.5,4.5H64c2.5,0,4.5-2,4.5-4.5v-6.2h6c2.5,0,4.5-2,4.5-4.5v-6.2h6c2.5,0,4.5-2,4.5-4.5V4.5C89.5,2,87.5,0,85,0z
	 M65.5,66.1c0,0.8-0.7,1.5-1.5,1.5H4.6c-0.8,0-1.5-0.6-1.5-1.5v-4.6c1.2-1.4,2.2-3,3.2-4.6c2.2-3.5,4.1-7.2,5.5-11.1
	c0.4-1.1,1.6-1.7,2.7-1.3c0.4,0.1,0.8,0.4,1.1,0.8l9.4,13.5c1.6,2.2,4.6,2.9,6.9,1.4l7.1-4.4c0.9-0.5,2-0.4,2.7,0.4l4.6,5.1
	c1.6,1.8,4.3,2.2,6.4,1l4-2.4c0.6-0.3,1.3-0.4,1.9-0.1l6.7,2.7c0.1,0,0.2,0.1,0.3,0.1V66.1z M65.5,51.8c-0.1,0-0.2,0-0.4-0.1h-6.4
	c-0.8,0-1.5,0.7-1.5,1.5s0.7,1.5,1.5,1.5h6.4c0.1,0,0.3,0,0.4,0v4.8L59.6,57c-1.5-0.6-3.1-0.5-4.5,0.3l-4,2.4
	c-0.9,0.5-2,0.3-2.7-0.4l-4.7-5.1c-1.7-1.8-4.4-2.2-6.5-0.9l-7.1,4.4c-1,0.6-2.2,0.3-2.9-0.6l-9.4-13.5c-1.6-2.3-4.8-2.9-7.1-1.2
	c-0.9,0.6-1.5,1.5-1.9,2.5c-1.5,4.1-3.5,7.9-5.8,11.5V38.5h8.3c0.8,0,1.5-0.7,1.5-1.5s-0.7-1.5-1.5-1.5H3.1v-2.6h13.3
	c0.8,0,1.5-0.7,1.5-1.5c0-0.8-0.7-1.5-1.5-1.5H3.1v-4.1c0-0.8,0.7-1.5,1.5-1.5H64c0.8,0,1.5,0.7,1.5,1.5v20.3c-0.1,0-0.2,0-0.4,0
	H54.6c-0.8,0-1.5,0.7-1.5,1.5c0,0.8,0.7,1.5,1.5,1.5h10.5c0.1,0,0.3,0,0.4,0V51.8z M74.5,56.9h-6v-31c0-2.5-2-4.5-4.5-4.5H13.5v-6.2
	c0-0.8,0.7-1.5,1.5-1.5h59.4c0.8,0,1.5,0.7,1.5,1.5v40.2h0C76,56.2,75.3,56.9,74.5,56.9z M86.4,44.7c0,0.8-0.7,1.5-1.5,1.5h-6v-31
	c0-2.5-2-4.5-4.5-4.5H24V4.5C24,3.6,24.7,3,25.5,3h59.4c0.8,0,1.5,0.7,1.5,1.5V44.7z M47.3,30.6c-4.1,0-7.5,3.4-7.5,7.5
	c0,4.1,3.4,7.5,7.5,7.5c4.1,0,7.5-3.4,7.5-7.5C54.8,33.9,51.5,30.6,47.3,30.6z M47.3,42.5c-2.5,0-4.5-2-4.5-4.5c0-2.5,2-4.5,4.5-4.5
	v0c2.5,0,4.5,2,4.5,4.5S49.8,42.5,47.3,42.5z"/>
</svg>
