<svg xmlns="http://www.w3.org/2000/svg" viewBox="0 0 88 58">
	<path fill="#d3ab48" d="M84.4 3.6C82.1 1.2 78.7 0 74.8 0H13.2C9.3 0 5.9 1.2 3.6 3.6S0 9.4 0 13.3v31.3c0 3.9 1.2 7.4 3.6 9.8S9.3 58 13.2 58h61.6c3.9 0 7.3-1.2 9.6-3.6s3.6-5.8 3.6-9.8V13.3C88 9.4 86.8 6 84.4 3.6zM4 44.6V13.3c0-2.9 0.8-5 2-6.5v0l21.1 22.2L5.6 50.6C4.6 49.1 4 47.2 4 44.6zM74.8 54H13.2c-1.8 0-3.3-0.3-4.5-0.9L29.8 32l8.9 9.4c0.4 0.4 0.9 0.6 1.4 0.6h8c4-1.9 7-6.6 10.1-9.9l21 21C78.1 53.7 76.6 54 74.8 54zM84 44.6c0 2.5-0.6 4.5-1.6 5.9L61.1 29.2 82 6.9c1.2 1.5 2 3.6 2 6.5V44.6z"/>
</svg>