<?xml version="1.0" encoding="utf-8"?>
<!-- Generator: Adobe Illustrator 21.0.2, SVG Export Plug-In . SVG Version: 6.00 Build 0)  -->
<svg version="1.1" id="Layer_1" xmlns="http://www.w3.org/2000/svg" xmlns:xlink="http://www.w3.org/1999/xlink" x="0px" y="0px"
	 viewBox="0 0 542.54 129.015" style="enable-background:new 0 0 542.54 129.015;" xml:space="preserve">
<style type="text/css">
	.st0{fill:#000000;}
</style>
<path class="st0" d="M535.263,6.427C530.441,2.174,523.92,0,515.697,0c-8.223,0-14.84,2.174-19.662,6.427
	c-4.819,4.253-7.183,10.113-7.183,17.677v20.984c0,7.467,2.458,13.327,7.279,17.58c4.819,4.254,11.343,6.334,19.566,6.334
	c8.223,0,14.745-2.08,19.566-6.334c4.819-4.253,7.277-10.113,7.277-17.58V24.104C542.54,16.54,540.082,10.681,535.263,6.427z
	 M526.281,45.653c0,4.444-3.495,8.413-10.585,8.413c-7.089,0-10.587-3.969-10.587-8.413V23.251c0-4.253,3.498-8.317,10.587-8.317
	c7.089,0,10.585,4.064,10.585,8.317V45.653z M456.14,15.596h25.993V1.418h-42.25v66.166h16.256V15.596z M427.961,22.686
	c0-13.139-7.183-21.268-19.282-21.268H377.96v66.166h16.258V44.142h14.461C420.778,44.142,427.961,35.918,427.961,22.686z
	 M394.218,29.963V15.596h11.341c3.026,0,5.956,2.362,5.956,7.277c0,4.916-2.93,7.089-5.956,7.089H394.218z M210.813,54.067
	c-6.143,0-10.019-2.93-10.019-8.223h-14.839c0,8.033,2.362,13.895,7.089,17.58c4.725,3.686,10.775,5.578,18.242,5.578
	c16.352,0,25.899-8.791,25.899-23.914V23.913C237.186,8.791,227.639,0,211.287,0c-13.517,0-25.332,6.237-25.332,23.157h14.839
	c0-5.293,3.875-8.223,10.019-8.223c6.711,0,10.115,2.836,10.115,8.507v4.253H203.63v13.42h17.299v4.444
	C220.928,51.231,217.524,54.067,210.813,54.067z M80.069,41.116h23.629v-13.42H80.069V15.596h27.979V1.418H63.811v66.166h44.426
	V53.405H80.069V41.116z M364.434,53.405h-28.167V41.116h23.63v-13.42h-23.63V15.596h27.977V1.418h-44.236v66.166h44.426V53.405z
	 M51.609,46.599c0-12.951-7.279-21.174-19.282-21.174H16.259v-9.829h31.097V1.418H0v66.166h32.327
	C44.33,67.583,51.609,59.454,51.609,46.599z M16.259,53.405V39.604h13.232c2.93,0,5.672,2.27,5.672,6.901
	c0,4.632-2.742,6.9-5.672,6.9H16.259z M267.726,41.59h19.85v25.994h16.256V1.418h-16.256v25.994h-19.85V1.418h-16.258v66.166h16.258
	V41.59z M141.99,34.122V15.596h14.273v51.987h16.258V1.418h-45.843v29.773c0,8.698-0.566,14.463-1.702,17.299
	c-1.04,2.836-3.685,4.253-7.845,4.253h-1.512v14.841h1.512C134.239,67.583,141.99,57.09,141.99,34.122z M155.65,97.707h-6.647
	v-6.045h-1.696v13.649h1.696v-6.104h6.647v6.104h1.697V91.663h-1.697V97.707z M292.808,108.098v-4.289h-1.676V91.663h-8.035v5.83
	c0,2.32-0.446,4.153-0.895,4.992c-0.215,0.41-0.508,0.838-0.877,1.326h-1.035v4.289h1.559v-2.787h9.399v2.787H292.808z
	 M289.435,103.81h-6.279c0.312-0.526,0.566-0.975,0.742-1.385c0.174-0.408,0.35-1.051,0.506-1.931
	c0.176-0.877,0.254-1.87,0.254-3.002v-4.328h4.776V103.81z M90.546,91.37c-3.295,0-5.225,1.813-5.225,4.913v4.408
	c0,3.1,1.93,4.912,5.225,4.912c1.424,0,2.594-0.389,3.549-1.189c0.955-0.799,1.424-1.951,1.424-3.45v-0.195h-1.697v0.195
	c0,0.994-0.332,1.754-0.996,2.28c-0.643,0.527-1.422,0.799-2.299,0.799c-2.283,0-3.51-1.188-3.51-3.235v-4.641
	c0-2.047,1.227-3.238,3.51-3.238c0.877,0,1.655,0.275,2.299,0.799c0.664,0.527,0.996,1.287,0.996,2.283v0.195h1.697v-0.195
	c0-1.502-0.469-2.652-1.424-3.451C93.14,91.759,91.97,91.37,90.546,91.37z M97.202,93.165h4.153v12.147h1.697V93.165h4.133v-1.502
	h-9.983V93.165z M123.93,99.189h5.889v-1.502h-5.889v-4.522h6.805v-1.502h-8.502v13.649h8.523v-1.502h-6.826V99.189z
	 M358.663,91.663h-1.697v13.649h1.697v-6.104h6.649v6.104h1.697V91.663h-1.697v6.045h-6.649V91.663z M117.079,98.214
	c1.189-0.506,1.775-1.502,1.775-2.963c0-2.34-1.347-3.588-3.666-3.588h-5.733v13.649h6.221c2.32,0,3.705-1.326,3.705-3.726
	C119.38,99.773,118.62,98.662,117.079,98.214z M111.151,93.165h3.743c1.482,0,2.262,0.799,2.262,2.26
	c0,1.424-0.799,2.262-2.223,2.262h-3.783V93.165z M115.382,103.81h-4.231v-4.68h4.231c1.481,0,2.301,0.859,2.301,2.361
	C117.684,102.972,116.864,103.81,115.382,103.81z M141.973,97.707h-6.647v-6.045h-1.697v13.649h1.697v-6.104h6.647v6.104h1.697
	V91.663h-1.697V97.707z M353.332,105.312V91.663h-1.697v6.045h-6.649v-6.045h-1.696v13.649h1.696v-6.104h6.649v6.104H353.332z
	 M305.179,96.205v-0.195c0-1.502-0.467-2.652-1.424-3.451c-0.955-0.802-2.125-1.191-3.547-1.191c-3.297,0-5.227,1.813-5.227,4.913
	v4.408c0,3.1,1.93,4.912,5.227,4.912c1.422,0,2.592-0.389,3.547-1.189c0.957-0.799,1.424-1.951,1.424-3.45v-0.195h-1.697v0.195
	c0,0.994-0.332,1.754-0.993,2.28c-0.644,0.527-1.424,0.799-2.301,0.799c-2.281,0-3.51-1.188-3.51-3.235v-4.641
	c0-2.047,1.229-3.238,3.51-3.238c0.877,0,1.658,0.275,2.301,0.799c0.661,0.527,0.993,1.287,0.993,2.283v0.195H305.179z
	 M45.765,91.663h-1.502l-3.549,8.071l-4.094-8.071h-1.58v0.566l4.818,9.397l-1.502,3.121v0.566h1.619l5.791-13.083V91.663z
	 M56.438,91.663h-8.035v5.83c0,2.32-0.446,4.153-0.895,4.992c-0.215,0.41-0.508,0.838-0.877,1.326h-1.035v4.289h1.559v-2.787h9.399
	v2.787h1.559v-4.289h-1.676V91.663z M54.741,103.81h-6.278c0.311-0.526,0.566-0.975,0.742-1.385c0.174-0.408,0.35-1.051,0.506-1.931
	c0.177-0.877,0.254-1.87,0.254-3.002v-4.328h4.776V103.81z M28.581,91.37c-3.297,0-5.227,1.813-5.227,4.913v4.408
	c0,3.1,1.93,4.912,5.227,4.912c1.422,0,2.592-0.389,3.547-1.189c0.957-0.799,1.424-1.951,1.424-3.45v-0.195h-1.697v0.195
	c0,0.994-0.332,1.754-0.993,2.28c-0.644,0.527-1.424,0.799-2.301,0.799c-2.281,0-3.51-1.188-3.51-3.235v-4.641
	c0-2.047,1.229-3.238,3.51-3.238c0.877,0,1.658,0.275,2.301,0.799c0.662,0.527,0.993,1.287,0.993,2.283v0.195h1.697v-0.195
	c0-1.502-0.467-2.652-1.424-3.451C31.173,91.759,30.003,91.37,28.581,91.37z M15.254,91.37c-3.217,0-5.246,1.834-5.246,4.893v4.447
	c0,3.061,2.029,4.893,5.246,4.893c3.217,0,5.243-1.832,5.243-4.893v-4.447C20.498,93.204,18.471,91.37,15.254,91.37z
	 M18.801,100.787c0,1.951-1.305,3.256-3.547,3.256c-2.262,0-3.549-1.305-3.549-3.256v-4.602c0-1.949,1.286-3.256,3.549-3.256
	c2.242,0,3.547,1.307,3.547,3.256V100.787z M0,105.312h1.697V93.165h6.629v-1.502H0V105.312z M329.041,101.586
	c0-1.813-0.76-2.924-2.301-3.373c1.191-0.506,1.774-1.502,1.774-2.963c0-2.34-1.344-3.588-3.666-3.588h-5.731v13.649h6.219
	C327.657,105.312,329.041,103.986,329.041,101.586z M320.813,93.165h3.744c1.481,0,2.26,0.799,2.26,2.26
	c0,1.424-0.799,2.262-2.221,2.262h-3.783V93.165z M320.813,103.81v-4.68h4.229c1.484,0,2.301,0.859,2.301,2.361
	c0,1.482-0.818,2.32-2.301,2.32H320.813z M79.188,91.663h-5.713v13.649h1.697v-5.441h4.016c2.34,0,3.764-1.58,3.764-4.094
	C82.953,93.261,81.529,91.663,79.188,91.663z M78.897,98.369h-3.725v-5.205h3.725c1.404,0,2.32,0.955,2.32,2.613
	C81.217,97.414,80.301,98.369,78.897,98.369z M182.85,103.81h-6.826v-4.621h5.889v-1.502h-5.889v-4.522h6.805v-1.502h-8.502v13.649
	h8.523V103.81z M171.082,100.709v-4.447c0-3.059-2.029-4.893-5.246-4.893s-5.246,1.834-5.246,4.893v4.447
	c0,3.061,2.029,4.893,5.246,4.893S171.082,103.771,171.082,100.709z M169.386,100.787c0,1.951-1.307,3.256-3.549,3.256
	c-2.262,0-3.549-1.305-3.549-3.256v-4.602c0-1.949,1.287-3.256,3.549-3.256c2.242,0,3.549,1.307,3.549,3.256V100.787z
	 M64.401,91.663l-5.088,13.083v0.566h1.559l1.404-3.627h5.889l1.365,3.627h1.676v-0.566l-5.108-13.083H64.401z M62.782,100.242
	l2.439-6.318l2.418,6.318H62.782z M340.398,93.165v-1.502h-8.502v13.649h8.52v-1.502h-6.823v-4.621h5.887v-1.502h-5.887v-4.522
	H340.398z M250.161,98.291c1.385-0.526,2.086-1.559,2.086-3.061c0-1.149-0.41-2.065-1.209-2.789
	c-0.799-0.721-1.91-1.071-3.334-1.071c-1.385,0-2.535,0.389-3.412,1.191c-0.877,0.778-1.307,1.93-1.326,3.451h1.696
	c0-2.029,1.228-3.082,3.041-3.082c1.795,0,2.828,1.035,2.828,2.457c0,1.424-0.916,2.205-2.477,2.205h-1.91v1.5h1.91
	c1.774,0,2.828,0.877,2.828,2.361c0,1.655-1.092,2.592-3.023,2.592c-2.026,0-3.471-1.071-3.49-3.08h-1.696
	c0.021,1.5,0.506,2.651,1.463,3.45c0.955,0.799,2.182,1.189,3.666,1.189c2.983,0,4.776-1.637,4.776-4.151
	C252.579,99.794,251.585,98.681,250.161,98.291z M375.499,91.37c-3.217,0-5.246,1.834-5.246,4.893v4.447
	c0,3.061,2.029,4.893,5.246,4.893c3.217,0,5.243-1.832,5.243-4.893v-4.447C380.743,93.204,378.716,91.37,375.499,91.37z
	 M379.046,100.787c0,1.951-1.305,3.256-3.547,3.256c-2.262,0-3.549-1.305-3.549-3.256v-4.602c0-1.949,1.287-3.256,3.549-3.256
	c2.242,0,3.547,1.307,3.547,3.256V100.787z M385.686,99.189h5.887v-1.502h-5.887v-4.522h6.805v-1.502h-8.502v13.649h8.52v-1.502
	h-6.823V99.189z M433.288,97.103h-3.939v-5.44h-4.973v1.502h3.277v12.147h5.635c2.418,0,3.842-1.562,3.842-4.115
	C437.13,98.681,435.706,97.103,433.288,97.103z M433.093,103.81h-3.744v-5.207h3.744c1.404,0,2.301,0.976,2.301,2.594
	C435.394,102.855,434.497,103.81,433.093,103.81z M419.728,97.103h-4.444v-3.938h7.389v-1.502h-9.086v13.649h6.141
	c2.34,0,3.744-1.601,3.744-4.115C423.472,98.681,422.068,97.103,419.728,97.103z M419.416,103.81h-4.133v-5.207h4.133
	c1.383,0,2.32,0.957,2.32,2.594C421.736,102.855,420.8,103.81,419.416,103.81z M405.096,91.37c-3.217,0-5.246,1.834-5.246,4.893
	v4.447c0,3.061,2.029,4.893,5.246,4.893c3.217,0,5.246-1.832,5.246-4.893v-4.447C410.342,93.204,408.314,91.37,405.096,91.37z
	 M408.646,100.787c0,1.951-1.307,3.256-3.549,3.256c-2.262,0-3.549-1.305-3.549-3.256v-4.602c0-1.949,1.287-3.256,3.549-3.256
	c2.242,0,3.549,1.307,3.549,3.256V100.787z M363.638,125.78v-10.705h-1.697v13.649h1.559l6.844-10.705v10.705h1.697v-13.649h-1.559
	L363.638,125.78z M324.014,116.577h4.151v12.147h1.696v-12.147h4.135v-1.502h-9.983V116.577z M337.964,125.78v-10.705h-1.697v13.649
	h1.559l6.844-10.705v10.705h1.697v-13.649h-1.559L337.964,125.78z M171.399,114.782c-1.424,0-2.594,0.41-3.531,1.209
	c-0.934,0.799-1.403,1.951-1.403,3.471h1.601c0-0.994,0.33-1.774,0.994-2.301c0.661-0.545,1.442-0.819,2.34-0.819
	c2.28,0,3.567,1.17,3.567,3.178v1.601h-5.342v1.5h5.342v1.658c0,2.008-1.287,3.178-3.567,3.178c-0.898,0-1.679-0.273-2.34-0.799
	c-0.664-0.545-0.994-1.326-0.994-2.32h-1.601c0,1.52,0.469,2.69,1.403,3.49c0.937,0.799,2.107,1.188,3.531,1.188
	c3.295,0,5.264-1.793,5.264-4.854v-4.525C176.663,116.577,174.693,114.782,171.399,114.782z M466.791,102.367V91.663h-1.696v13.649
	h1.559l6.844-10.705v10.705h1.696V91.663h-1.559L466.791,102.367z M512.247,97.707h-6.649v-6.045h-1.697v13.649h1.697v-6.104h6.649
	v6.104h1.694V91.663h-1.694V97.707z M494.204,99.189h5.889v-1.502h-5.889v-4.522h6.805v-1.502h-8.502v13.649h8.52v-1.502h-6.823
	V99.189z M519.274,102.367V91.663h-1.697v13.649h1.559l6.844-10.705v10.705h1.697V91.663h-1.559L519.274,102.367z M441.584,99.189
	h5.889v-1.502h-5.889v-4.522h6.805v-1.502h-8.502v13.649h8.523v-1.502h-6.826V99.189z M533.011,99.189h5.889v-1.502h-5.889v-4.522
	h6.805v-1.502h-8.502v13.649h8.52v-1.502h-6.823V99.189z M460.854,91.663h-8.033v5.83c0,2.32-0.449,4.153-0.897,4.992
	c-0.213,0.41-0.506,0.838-0.877,1.326h-1.033v4.289h1.559v-2.787h9.397v2.787h1.562v-4.289h-1.678V91.663z M459.16,103.81h-6.281
	c0.314-0.526,0.565-0.975,0.742-1.385c0.176-0.408,0.35-1.051,0.506-1.931c0.176-0.877,0.254-1.87,0.254-3.002v-4.328h4.779V103.81z
	 M487.177,97.707h-6.649v-6.045h-1.697v13.649h1.697v-6.104h6.649v6.104h1.697V91.663h-1.697V97.707z M315.682,122.602h5.887v-1.502
	h-5.887v-4.522h6.805v-1.502h-8.502v13.649h8.52v-1.502h-6.823V122.602z M359.418,115.641v-0.566h-1.58l-3.957,6.045h-2.184v-6.045
	h-1.697v13.649h1.697v-6.104h2.203l4.096,6.104h1.676v-0.566l-4.309-6.377L359.418,115.641z M214.988,116.577h4.154v12.147h1.696
	v-12.147h4.133v-1.502h-9.983V116.577z M213.83,115.641v-0.566h-1.58l-3.957,6.045h-2.184v-6.045h-1.697v13.649h1.697v-6.104h2.203
	l4.096,6.104h1.676v-0.566l-4.309-6.377L213.83,115.641z M239.818,105.312V91.663h-1.559l-6.844,10.704V91.663h-1.697v13.649h1.559
	l6.844-10.705v10.705H239.818z M316.848,91.663h-9.983v1.502h4.151v12.147h1.697V93.165h4.135V91.663z M221.228,91.37
	c-3.217,0-5.246,1.834-5.246,4.893v4.447c0,3.061,2.029,4.893,5.246,4.893s5.246-1.832,5.246-4.893v-4.447
	C226.474,93.204,224.445,91.37,221.228,91.37z M224.777,100.787c0,1.951-1.307,3.256-3.549,3.256c-2.262,0-3.549-1.305-3.549-3.256
	v-4.602c0-1.949,1.287-3.256,3.549-3.256c2.241,0,3.549,1.307,3.549,3.256V100.787z M198.807,105.312h1.697V91.663h-9.924v13.649
	h1.696V93.165h6.53V105.312z M181.077,121.725c0,2.143-0.195,3.588-0.566,4.328c-0.371,0.742-1.071,1.11-2.106,1.11v1.562
	c1.502,0,2.594-0.509,3.258-1.521c0.682-1.014,1.012-2.789,1.012-5.305v-5.321h5.012v12.147h1.697v-13.649h-8.307V121.725z
	 M194.715,122.602h5.889v-1.502h-5.889v-4.522h6.805v-1.502h-8.502v13.649h8.522v-1.502h-6.826V122.602z M205.836,99.871h4.016
	c2.34,0,3.762-1.58,3.762-4.094c0-2.516-1.422-4.115-3.762-4.115h-5.713v13.649h1.697V99.871z M205.836,93.165h3.723
	c1.403,0,2.319,0.955,2.319,2.613c0,1.637-0.916,2.592-2.319,2.592h-3.723V93.165z M232.954,115.075h-5.713v13.649h1.697v-5.441
	h4.016c2.34,0,3.762-1.58,3.762-4.094C236.716,116.674,235.294,115.075,232.954,115.075z M232.661,121.782h-3.723v-5.205h3.723
	c1.403,0,2.32,0.955,2.32,2.613C234.98,120.827,234.064,121.782,232.661,121.782z M281.07,122.602h5.887v-1.502h-5.887v-4.522h6.805
	v-1.502h-8.502v13.649h8.52v-1.502h-6.823V122.602z M296.48,115.075h-5.713v13.649h1.697v-5.441h4.016
	c2.34,0,3.762-1.58,3.762-4.094C300.242,116.674,298.82,115.075,296.48,115.075z M296.187,121.782h-3.723v-5.205h3.723
	c1.404,0,2.32,0.955,2.32,2.613C298.507,120.827,297.591,121.782,296.187,121.782z M302.999,128.724h1.697v-12.147h6.629v-1.502
	h-8.325V128.724z M244.329,114.782c-3.217,0-5.246,1.834-5.246,4.893v4.446c0,3.061,2.029,4.893,5.246,4.893
	s5.243-1.832,5.243-4.893v-4.446C249.573,116.616,247.546,114.782,244.329,114.782z M247.876,124.2c0,1.951-1.305,3.256-3.547,3.256
	c-2.262,0-3.549-1.305-3.549-3.256v-4.602c0-1.948,1.286-3.256,3.549-3.256c2.242,0,3.547,1.307,3.547,3.256V124.2z M273.068,91.37
	c-3.217,0-5.246,1.834-5.246,4.893v4.447c0,3.061,2.029,4.893,5.246,4.893c3.217,0,5.246-1.832,5.246-4.893v-4.447
	C278.313,93.204,276.285,91.37,273.068,91.37z M276.617,100.787c0,1.951-1.307,3.256-3.549,3.256c-2.262,0-3.549-1.305-3.549-3.256
	v-4.602c0-1.949,1.286-3.256,3.549-3.256c2.241,0,3.549,1.307,3.549,3.256V100.787z M257.186,114.782
	c-1.422,0-2.592,0.41-3.529,1.209c-0.936,0.799-1.403,1.951-1.403,3.471h1.598c0-0.994,0.332-1.774,0.993-2.301
	c0.664-0.545,1.443-0.819,2.34-0.819c2.283,0,3.57,1.17,3.57,3.178v1.601h-5.344v1.5h5.344v1.658c0,2.008-1.287,3.178-3.57,3.178
	c-0.898,0-1.676-0.273-2.34-0.799c-0.661-0.545-0.993-1.326-0.993-2.32h-1.598c0,1.52,0.467,2.69,1.403,3.49
	c0.937,0.799,2.107,1.188,3.529,1.188c3.295,0,5.264-1.793,5.264-4.854v-4.525C262.45,116.577,260.481,114.782,257.186,114.782z
	 M274.041,121.12h-6.649v-6.045h-1.697v13.649h1.697v-6.104h6.649v6.104h1.696v-13.649h-1.696V121.12z M263.057,98.214
	c1.188-0.506,1.774-1.502,1.774-2.963c0-2.34-1.346-3.588-3.666-3.588h-5.734v13.649h6.221c2.32,0,3.705-1.326,3.705-3.726
	C265.358,99.773,264.598,98.662,263.057,98.214z M257.129,93.165h3.744c1.481,0,2.262,0.799,2.262,2.26
	c0,1.424-0.799,2.262-2.224,2.262h-3.783V93.165z M261.36,103.81h-4.231v-4.68h4.231c1.482,0,2.301,0.859,2.301,2.361
	C263.661,102.972,262.842,103.81,261.36,103.81z"/>
</svg>
