<?xml version="1.0" encoding="utf-8"?>
<!-- Generator: Adobe Illustrator 21.0.2, SVG Export Plug-In . SVG Version: 6.00 Build 0)  -->
<svg version="1.1" id="Слой_1" xmlns="http://www.w3.org/2000/svg" xmlns:xlink="http://www.w3.org/1999/xlink" x="0px" y="0px"
	 viewBox="0 0 275.174 83.888" style="enable-background:new 0 0 275.174 83.888;" xml:space="preserve">
<style type="text/css">
	.st0{fill:#000000;}
</style>
<path class="st0" d="M17.158,63.429l0.493,1.057l2.436,5.229l-0.505-5.747l-0.102-1.161l0.75,0.894l3.706,4.42l-1.975-5.42
	l-0.399-1.095l0.955,0.669l4.724,3.311l-3.31-4.724l-0.669-0.955l1.096,0.399l5.42,1.975l-4.42-3.707l-0.893-0.749l1.162,0.102
	l5.747,0.505l-5.229-2.436l-1.057-0.492l1.149-0.202l5.681-1l-5.681-1L25.089,53.1l1.057-0.493l5.229-2.436l-5.747,0.505
	l-1.161,0.102l0.894-0.75l4.42-3.706l-5.42,1.975l-1.095,0.399l0.669-0.955l3.311-4.724l-4.724,3.31l-0.955,0.669l0.399-1.096
	l1.975-5.42l-3.707,4.42l-0.749,0.893l0.102-1.162l0.505-5.747l-2.436,5.229l-0.492,1.056l-0.202-1.149l-1-5.681l-1,5.681
	l-0.202,1.148l-0.493-1.057l-2.436-5.229l0.505,5.747l0.102,1.161l-0.75-0.894l-3.706-4.42l1.975,5.42l0.399,1.095l-0.955-0.669
	l-4.724-3.31l3.31,4.724l0.669,0.954L7.56,48.291l-5.42-1.975l4.42,3.707l0.893,0.749L6.291,50.67l-5.747-0.505l5.229,2.436
	l1.056,0.492l-1.149,0.202l-5.681,1l5.681,1l1.148,0.202L5.772,55.99l-5.229,2.436l5.747-0.505l1.161-0.102l-0.894,0.75l-4.42,3.706
	l5.42-1.975l1.095-0.399l-0.669,0.955l-3.31,4.724l4.724-3.31l0.955-0.669l-0.399,1.096l-1.975,5.42l3.706-4.42l0.749-0.893
	l-0.102,1.162l-0.505,5.747l2.436-5.229l0.492-1.056l0.202,1.149l1,5.681l1-5.681L17.158,63.429z M9.134,54.299
	c0-3.769,3.056-6.825,6.825-6.825c3.769,0,6.825,3.056,6.825,6.825c0,3.768-3.056,6.825-6.825,6.825
	C12.191,61.124,9.134,58.067,9.134,54.299z M16.063,0c-0.035,0-0.069,0.001-0.104,0.001v10.461c0.035,0,0.069-0.001,0.104-0.001
	c17.385,0,31.484,14.099,31.484,31.484c0,1.79-0.152,3.545-0.439,5.254c-0.789-16.46-14.389-29.569-31.044-29.569
	c-0.035,0-0.069,0.001-0.104,0.001v7.752c0.035,0,0.069-0.001,0.104-0.001c12.883,0,23.33,10.448,23.33,23.33
	c0,3.515-0.779,6.847-2.172,9.837c0.272-1.367,0.415-2.779,0.415-4.225c0-11.912-9.661-21.573-21.573-21.573
	c-0.035,0-0.069,0.001-0.104,0.001v5.38c0.035,0,0.069-0.001,0.104-0.001c8.942,0,16.193,7.252,16.193,16.193
	c0,8.942-7.252,16.193-16.193,16.193c-0.035,0-0.069-0.001-0.104-0.001v13.373c0.035,0,0.069,0.001,0.104,0.001
	c23.16,0,41.944-18.784,41.944-41.944C58.007,18.784,39.223,0,16.063,0z M115.001,60.856l-1.792-5.502h-0.954l-1.792,5.502
	l-1.595-7.23h-1.201v0.677l1.957,8.477h1.299l1.808-5.218l1.792,5.218h1.283l1.957-8.477v-0.677h-1.184L115.001,60.856z
	 M102.791,27.664H97.37v-3.592h10.492v-5.181H91.884V43.07h10.907c4.051,0,6.509-2.97,6.509-7.669
	C109.3,30.669,106.842,27.664,102.791,27.664z M101.835,37.889H97.37v-5.043h4.465c0.988,0,1.912,0.83,1.912,2.522
	C103.747,37.06,102.823,37.889,101.835,37.889z M129.995,60.856l-1.792-5.502h-0.954l-1.792,5.502l-1.595-7.23h-1.2v0.677
	l1.956,8.477h1.299l1.808-5.218l1.792,5.218h1.283l1.956-8.477v-0.677h-1.184L129.995,60.856z M150.097,43.07V18.891h-15.468v10.881
	c0,3.177-0.191,5.285-0.577,6.32c-0.351,1.037-1.243,1.555-2.645,1.555h-0.51v5.423h0.51c5.772,0,8.389-3.833,8.389-12.228v-6.769
	h4.816V43.07H150.097z M248.386,62.78h1.546v-2.35h-1.546V62.78z M137.44,62.78h1.546v-2.35h-1.546V62.78z M240.311,43.07h5.489
	V24.072h8.768v-5.181h-14.257V43.07z M273.975,53.626l-2.532,7.23l-2.582-7.23h-1.232v0.677l3.173,8.477l-0.937,2.315v0.534h1.101
	l4.209-11.326v-0.677H273.975z M100.007,60.856l-1.792-5.502h-0.954l-1.792,5.502l-1.595-7.23h-1.201v0.677l1.957,8.477h1.299
	l1.808-5.218l1.792,5.218h1.283l1.957-8.477v-0.677h-1.184L100.007,60.856z M128.405,37.889H118.9v-4.491h7.974v-4.903H118.9v-4.422
	h9.441v-5.181h-14.926V43.07h14.99V37.889z M259.805,53.414c-1.103,0-1.99,0.444-2.681,1.335v-4.523h-1.314V62.78h0.789l0.461-1.211
	c0.772,0.943,1.693,1.425,2.794,1.425c1.776,0,2.978-1.229,2.978-3.366v-2.849C262.831,54.642,261.629,53.414,259.805,53.414z
	 M261.514,59.521c0,1.3-0.772,2.172-1.907,2.172c-0.839,0-1.661-0.481-2.484-1.442v-4.096c0.822-0.962,1.661-1.443,2.5-1.443
	c1.119,0,1.891,0.873,1.891,2.174V59.521z M274.951,34.849v-7.669c0-2.763-0.828-4.905-2.454-6.458
	c-1.626-1.555-3.828-2.349-6.601-2.349c-2.776,0-5.007,0.794-6.636,2.349c-1.625,1.553-2.425,3.695-2.425,6.458v7.669
	c0,2.729,0.832,4.87,2.457,6.424c1.626,1.555,3.828,2.316,6.604,2.316c2.773,0,4.975-0.761,6.601-2.316
	C274.122,39.72,274.951,37.578,274.951,34.849z M269.466,35.056c0,1.624-1.179,3.076-3.57,3.076c-2.394,0-3.573-1.451-3.573-3.076
	V26.87c0-1.555,1.179-3.039,3.573-3.039c2.391,0,3.57,1.484,3.57,3.039V35.056z M194.404,43.07V18.891h-5.485v9.5h-6.696v-9.5
	h-5.485V43.07h5.485v-9.498h6.696v9.498H194.404z M193.428,53.414c-1.086,0-2.007,0.48-2.779,1.424l-0.461-1.212h-0.789v9.154h1.316
	v-6.624c0.74-0.962,1.562-1.443,2.449-1.443c1.119,0,1.875,0.784,1.875,2.298v5.769h1.315v-5.93
	C196.354,54.695,195.187,53.414,193.428,53.414z M180.345,53.414c-2.171,0-3.519,1.335-3.519,3.4v2.814
	c0,2.065,1.332,3.366,3.519,3.366c2.022,0,3.223-1.122,3.371-2.956h-1.316c-0.164,1.104-0.856,1.656-2.055,1.656
	c-1.398,0-2.203-0.837-2.203-2.101v-0.908h5.624v-1.905C183.766,54.713,182.466,53.414,180.345,53.414z M182.45,57.527h-4.308
	v-0.748c0-1.229,0.789-2.066,2.154-2.066c1.381,0,2.154,0.837,2.154,2.066V57.527z M215.649,54.838l-0.477-1.212h-0.69v9.154h1.315
	v-6.696c0.657-0.854,1.545-1.282,2.647-1.282h0.181v-1.388h-0.214C217.36,53.414,216.439,53.894,215.649,54.838z M214.854,37.889
	h-9.505v-4.491h7.974v-4.903h-7.974v-4.422h9.441v-5.181h-14.926V43.07h14.99V37.889z M229.175,54.838
	c-0.74-0.944-1.677-1.424-2.779-1.424c-1.776,0-2.977,1.228-2.977,3.365v1.959c0,2.137,1.2,3.365,3.026,3.365
	c1.102,0,1.99-0.445,2.68-1.335v1.567c0,1.478-0.69,2.208-2.089,2.208c-1.315,0-2.055-0.748-2.105-1.692h-1.315
	c0.016,1.853,1.381,2.992,3.42,2.992c2.121,0,3.404-1.193,3.404-3.543v-8.673h-0.789L229.175,54.838z M229.125,59.378
	c-0.789,0.944-1.612,1.425-2.45,1.425c-1.183,0-1.94-0.855-1.94-2.154v-1.782c0-1.3,0.757-2.155,1.94-2.155
	c0.839,0,1.661,0.481,2.45,1.425V59.378z M148.86,53.414c-1.102,0-1.99,0.444-2.68,1.335v-4.523h-1.315V62.78h0.789l0.461-1.211
	c0.772,0.943,1.693,1.425,2.795,1.425c1.776,0,2.976-1.229,2.976-3.366v-2.849C151.885,54.642,150.685,53.414,148.86,53.414z
	 M150.569,59.521c0,1.3-0.772,2.172-1.907,2.172c-0.839,0-1.66-0.481-2.483-1.442v-4.096c0.823-0.962,1.661-1.443,2.499-1.443
	c1.119,0,1.891,0.873,1.891,2.174V59.521z M205.427,53.414c-2.171,0-3.519,1.335-3.519,3.4v2.814c0,2.065,1.332,3.366,3.519,3.366
	c2.022,0,3.222-1.122,3.371-2.956h-1.316c-0.164,1.104-0.856,1.656-2.055,1.656c-1.398,0-2.203-0.837-2.203-2.101v-0.908h5.624
	v-1.905C208.847,54.713,207.548,53.414,205.427,53.414z M207.532,57.527h-4.308v-0.748c0-1.229,0.789-2.066,2.154-2.066
	c1.381,0,2.154,0.837,2.154,2.066V57.527z M239.611,53.414c-2.253,0-3.519,1.388-3.519,3.4v2.778c0,2.012,1.266,3.402,3.519,3.402
	c2.252,0,3.502-1.39,3.502-3.402v-2.778C243.113,54.802,241.863,53.414,239.611,53.414z M241.798,59.539
	c0,1.264-0.756,2.155-2.186,2.155c-1.398,0-2.203-0.891-2.203-2.155v-2.671c0-1.264,0.805-2.155,2.203-2.155
	c1.43,0,2.186,0.891,2.186,2.155V59.539z M229.783,18.891h-10.365V43.07h5.485v-8.566h4.88c4.083,0,6.505-3.005,6.505-7.841
	C236.289,21.861,233.867,18.891,229.783,18.891z M228.732,29.323h-3.828v-5.25h3.828c1.02,0,2.008,0.863,2.008,2.66
	S229.752,29.323,228.732,29.323z M160.809,53.414c-2.171,0-3.519,1.335-3.519,3.4v2.814c0,2.065,1.332,3.366,3.519,3.366
	c2.022,0,3.223-1.122,3.371-2.956h-1.315c-0.164,1.104-0.856,1.656-2.055,1.656c-1.398,0-2.203-0.837-2.203-2.101v-0.908h5.624
	v-1.905C164.23,54.713,162.93,53.414,160.809,53.414z M162.914,57.527h-4.308v-0.748c0-1.229,0.789-2.066,2.154-2.066
	c1.381,0,2.154,0.837,2.154,2.066V57.527z M169.863,62.78h1.315V50.226h-1.315V62.78z M163.178,18.373
	c-4.561,0-8.548,2.278-8.548,8.462h5.007c0-1.935,1.307-3.005,3.382-3.005c2.263,0,3.413,1.036,3.413,3.108v1.555h-5.839v4.903
	h5.839v1.624c0,2.073-1.15,3.11-3.413,3.11c-2.075,0-3.382-1.072-3.382-3.006h-5.007c0,2.936,0.797,5.078,2.394,6.424
	c1.594,1.348,3.633,2.04,6.155,2.04c5.517,0,8.74-3.214,8.74-8.74v-7.737C171.918,21.585,168.695,18.373,163.178,18.373z"/>
</svg>
