<?xml version="1.0" encoding="utf-8"?>
<!-- Generator: Adobe Illustrator 21.0.2, SVG Export Plug-In . SVG Version: 6.00 Build 0)  -->
<svg version="1.1" id="Слой_1" xmlns="http://www.w3.org/2000/svg" xmlns:xlink="http://www.w3.org/1999/xlink" x="0px" y="0px"
	 viewBox="0 0 157.417 227.654" style="enable-background:new 0 0 157.417 227.654;" xml:space="preserve">
<style type="text/css">
	.st0{fill-rule:evenodd;clip-rule:evenodd;fill:#E1AD3D;}
</style>
<path class="st0" d="M46.562,172.131L47.899,175l6.611,14.191l-1.37-15.595l-0.277-3.15l2.034,2.425l10.058,11.996l-5.359-14.709
	l-1.082-2.972l2.592,1.816l12.821,8.984l-8.983-12.821l-1.815-2.591l2.974,1.084l14.708,5.359l-11.995-10.059l-2.423-2.033
	l3.153,0.277l15.595,1.37l-14.19-6.611l-2.867-1.336l3.117-0.548l15.418-2.713l-15.418-2.713l-3.115-0.549l2.869-1.337l14.191-6.611
	l-15.595,1.369L66.4,137.8l2.425-2.034l11.996-10.058l-14.709,5.359l-2.972,1.082l1.816-2.592l8.984-12.821l-12.821,8.983
	l-2.59,1.815l1.084-2.974l5.359-14.709l-10.059,11.996l-2.033,2.423l0.277-3.153l1.37-15.595l-6.611,14.19l-1.336,2.867
	l-0.549-3.117l-2.713-15.417l-2.713,15.417l-0.548,3.115l-1.337-2.87l-6.611-14.19l1.37,15.595l0.277,3.151l-2.034-2.425
	l-10.058-11.996l5.359,14.709l1.083,2.972l-2.592-1.816l-12.821-8.984l8.983,12.821l1.815,2.591l-2.974-1.083l-14.709-5.36
	l11.996,10.059l2.423,2.032l-3.153-0.277l-15.595-1.37l14.19,6.612l2.867,1.336l-3.117,0.549L0,147.345l15.418,2.714l3.115,0.548
	l-2.869,1.337l-14.19,6.611l15.595-1.37l3.151-0.277l-2.426,2.034L5.798,169.001l14.709-5.359l2.972-1.082l-1.816,2.592
	l-8.983,12.821l12.821-8.983l2.591-1.815l-1.083,2.974l-5.36,14.708l10.059-11.995l2.033-2.423l-0.277,3.153l-1.37,15.595
	l6.611-14.19l1.336-2.867l0.549,3.117l2.713,15.418l2.713-15.418L46.562,172.131z M24.788,147.354
	c0-10.227,8.294-18.521,18.521-18.521c10.227,0,18.521,8.294,18.521,18.521c0,10.227-8.294,18.521-18.521,18.521
	C33.082,165.875,24.788,157.581,24.788,147.354z M43.59,0c-0.094,0-0.187,0.003-0.281,0.003v28.387c0.094,0,0.187-0.003,0.281-0.003
	c47.179,0,85.44,38.261,85.44,85.44c0,4.859-0.413,9.62-1.192,14.257C125.696,83.415,88.789,47.84,43.59,47.84
	c-0.094,0-0.187,0.003-0.281,0.003V68.88c0.094,0,0.187-0.004,0.281-0.004c34.96,0,63.313,28.353,63.313,63.313
	c0,9.538-2.115,18.582-5.895,26.695c0.737-3.708,1.127-7.541,1.127-11.466c0-32.326-26.218-58.544-58.545-58.544
	c-0.094,0-0.187,0.003-0.281,0.003v14.601c0.094-0.001,0.187-0.004,0.281-0.004c24.265,0,43.944,19.679,43.944,43.944
	c0,24.265-19.679,43.944-43.944,43.944c-0.094,0-0.187-0.003-0.281-0.003v36.291c0.094,0,0.187,0.003,0.281,0.003
	c62.852,0,113.827-50.975,113.827-113.827C157.417,50.975,106.442,0,43.59,0z"/>
</svg>
