<?xml version="1.0" encoding="utf-8"?>
<!-- Generator: Adobe Illustrator 21.0.2, SVG Export Plug-In . SVG Version: 6.00 Build 0)  -->
<svg version="1.1" id="Слой_1" xmlns="http://www.w3.org/2000/svg" xmlns:xlink="http://www.w3.org/1999/xlink" x="0px" y="0px"
	 viewBox="0 0 648.54 510.805" style="enable-background:new 0 0 648.54 510.805;" xml:space="preserve">
<style type="text/css">
	.st0{fill-rule:evenodd;clip-rule:evenodd;fill:#E1AD3D;}
	.st1{fill:#E1AD3D;}
</style>
<g>
	<g>
		<g>
			<path class="st0" d="M281.966,124.373l3.243,18.43l0.656,3.726l1.597-3.427l7.903-16.962l-1.638,18.641l-0.331,3.769l2.43-2.897
				l12.024-14.339l-6.406,17.583l-1.295,3.555l3.096-2.169l15.326-10.739l-10.739,15.325l-2.171,3.098l3.552-1.294l17.583-6.406
				l-14.34,12.024l-2.899,2.431l3.766-0.331l18.642-1.637l-16.963,7.903l-3.43,1.598l3.724,0.656l18.43,3.244l-18.43,3.243
				l-3.726,0.656l3.427,1.597l16.963,7.903l-18.642-1.638l-3.769-0.331l2.897,2.43l14.339,12.024l-17.582-6.406l-3.555-1.295
				l2.169,3.097l10.739,15.326l-15.325-10.74l-3.098-2.171l1.294,3.553l6.406,17.583l-12.023-14.34l-2.431-2.899l0.331,3.766
				l1.637,18.642l-7.903-16.963l-1.598-3.43l-0.656,3.724l-3.244,18.43l-3.243-18.43l-0.656-3.726l-1.597,3.427l-7.903,16.963
				l1.638-18.642l0.331-3.769l-2.43,2.897l-12.024,14.339l6.407-17.582l1.295-3.555l-3.097,2.169l-15.325,10.739l10.739-15.325
				l2.171-3.098l-3.552,1.294l-17.583,6.406l14.339-12.024l2.9-2.431l-3.766,0.331l-18.642,1.637l16.963-7.903l3.43-1.598
				l-3.724-0.656l-18.43-3.244l18.43-3.243l3.726-0.656l-3.427-1.597l-16.963-7.904l18.642,1.637l3.769,0.331l-2.897-2.429
				l-14.339-12.024l17.583,6.407l3.555,1.295l-2.169-3.097l-10.739-15.326l15.325,10.739l3.098,2.171l-1.294-3.552l-6.406-17.583
				l12.024,14.34l2.431,2.899l-0.331-3.766l-1.637-18.642l7.903,16.963l1.598,3.43l0.656-3.724L281.966,124.373L281.966,124.373z
				 M281.954,154.004c-12.225,0-22.139,9.915-22.139,22.14c0,12.225,9.914,22.139,22.139,22.139c12.225,0,22.14-9.914,22.14-22.139
				C304.094,163.919,294.179,154.004,281.954,154.004z"/>
			<path class="st0" d="M282.29,0c75.131,0,136.066,60.935,136.066,136.066c0,75.132-60.935,136.066-136.066,136.066
				c-0.112,0-0.224-0.004-0.336-0.004v-43.381c0.112,0,0.223,0.004,0.336,0.004c29.006,0,52.53-23.524,52.53-52.53
				c0-29.006-23.523-52.53-52.53-52.53c-0.112,0-0.223,0.004-0.336,0.005v-17.453c0.112,0,0.223-0.004,0.336-0.004
				c38.643,0,69.983,31.34,69.983,69.983c0,4.691-0.466,9.273-1.347,13.706c4.518-9.698,7.046-20.509,7.046-31.911
				c0-41.79-33.892-75.683-75.683-75.683c-0.112,0-0.223,0.004-0.336,0.005V57.192c0.112,0,0.223-0.004,0.336-0.004
				c54.029,0,98.147,42.525,100.708,95.921c0.932-5.544,1.425-11.235,1.425-17.043c0-56.397-45.736-102.133-102.133-102.133
				c-0.112,0-0.223,0.004-0.336,0.004V0.004C282.067,0.004,282.178,0,282.29,0z"/>
		</g>
	</g>
	<g>
		<g>
			<path class="st1" d="M0,437.371v-79.093h56.608v16.949H19.435v11.749h19.208c14.348,0,23.049,9.83,23.049,25.311
				c0,15.366-8.702,25.084-23.049,25.084H0z M19.435,420.422h15.818c3.502,0,6.78-2.711,6.78-8.248c0-5.536-3.278-8.25-6.78-8.25
				H19.435V420.422z"/>
			<path class="st1" d="M76.278,437.371v-79.093h52.881v16.949H95.713v14.463h28.246v16.042H95.713v14.69h33.67v16.949H76.278z"/>
			<path class="st1" d="M138.208,437.371v-17.74h1.807c4.973,0,8.135-1.695,9.378-5.085c1.358-3.39,2.035-10.281,2.035-20.678
				v-35.59h54.8v79.093h-19.435v-62.144h-17.061v22.146c0,27.455-9.266,39.998-29.717,39.998H138.208z"/>
			<path class="st1" d="M230.761,432.398c-5.651-4.406-8.475-11.412-8.475-21.015h17.738c0,6.328,4.633,9.83,11.976,9.83
				c8.023,0,12.092-3.39,12.092-10.169v-5.312h-20.678V389.69h20.678v-5.084c0-6.78-4.069-10.169-12.092-10.169
				c-7.344,0-11.976,3.502-11.976,9.83h-17.738c0-20.226,14.123-27.682,30.281-27.682c19.547,0,30.96,10.509,30.96,28.586v25.311
				c0,18.077-11.412,28.586-30.96,28.586C243.641,439.066,236.41,436.804,230.761,432.398z"/>
			<path class="st1" d="M300.599,437.371v-79.093h19.435v31.072h23.729v-31.072h19.432v79.093h-19.432v-31.072h-23.729v31.072
				H300.599z"/>
			<path class="st1" d="M382.531,437.371v-79.093h52.878v16.949h-33.443v14.463h28.247v16.042h-28.247v14.69h33.67v16.949H382.531z"
				/>
			<path class="st1" d="M451.805,437.371v-79.093h36.721c14.463,0,23.049,9.718,23.049,25.423c0,15.818-8.587,25.648-23.049,25.648
				H471.24v28.022H451.805z M471.24,392.4h13.556c3.617,0,7.119-2.598,7.119-8.475c0-5.876-3.502-8.699-7.119-8.699H471.24V392.4z"
				/>
			<path class="st1" d="M525.827,437.371v-79.093h50.504v16.949h-31.072v62.144H525.827z"/>
			<path class="st1" d="M593.063,431.495c-5.764-5.084-8.702-12.089-8.702-21.015v-25.083c0-9.042,2.826-16.046,8.587-21.13
				c5.764-5.084,13.674-7.683,23.504-7.683c9.83,0,17.625,2.598,23.389,7.683c5.761,5.085,8.699,12.089,8.699,21.13v25.083
				c0,8.926-2.938,15.931-8.699,21.015c-5.764,5.085-13.559,7.571-23.389,7.571C606.622,439.066,598.824,436.58,593.063,431.495z
				 M629.105,384.378c0-5.085-4.178-9.942-12.653-9.942c-8.474,0-12.656,4.857-12.656,9.942v26.779
				c0,5.312,4.181,10.057,12.656,10.057c8.475,0,12.653-4.745,12.653-10.057V384.378z"/>
		</g>
		<g>
			<path class="st1" d="M0,482.471v-16.316h9.952v1.795H2.028v14.52H0z"/>
			<path class="st1" d="M11.964,471.653c0-3.657,2.425-5.849,6.271-5.849s6.268,2.192,6.268,5.849v5.316
				c0,3.659-2.422,5.849-6.268,5.849s-6.271-2.19-6.271-5.849V471.653z M22.475,477.062v-5.502c0-2.33-1.56-3.892-4.24-3.892
				c-2.704,0-4.242,1.563-4.242,3.892v5.502c0,2.332,1.538,3.892,4.242,3.892C20.914,480.954,22.475,479.394,22.475,477.062z"/>
			<path class="st1" d="M27.916,476.947v-5.269c0-3.706,2.307-5.873,6.249-5.873c1.7,0,3.098,0.465,4.24,1.423
				c1.144,0.955,1.703,2.329,1.703,4.125v0.232h-2.028v-0.232c0-1.191-0.397-2.099-1.188-2.729
				c-0.769-0.627-1.703-0.955-2.751-0.955c-2.726,0-4.196,1.424-4.196,3.871v5.548c0,2.447,1.47,3.867,4.196,3.867
				c1.048,0,1.981-0.326,2.751-0.955c0.791-0.629,1.188-1.538,1.188-2.726v-0.233h2.028v0.233c0,1.793-0.558,3.169-1.703,4.124
				c-1.141,0.955-2.54,1.421-4.24,1.421C30.223,482.818,27.916,480.653,27.916,476.947z"/>
			<path class="st1" d="M45.849,481.795l1.796-3.731l-5.759-11.233v-0.676h1.889l4.894,9.648l4.243-9.648h1.795v0.676l-6.922,15.64
				h-1.935V481.795z"/>
			<path class="st1" d="M54.504,485.802v-5.127h1.237c0.441-0.583,0.791-1.095,1.048-1.585c0.536-1.002,1.07-3.194,1.07-5.967
				v-6.969h9.605v14.52h2.003v5.127h-1.864v-3.331H56.368v3.331H54.504z M65.436,480.675V467.95h-5.71v5.173
				c0,1.352-0.093,2.54-0.304,3.588c-0.186,1.051-0.397,1.82-0.605,2.308c-0.211,0.49-0.515,1.026-0.887,1.656H65.436z"/>
			<path class="st1" d="M70.902,482.471v-0.676l6.082-15.64h2.028l6.106,15.64v0.676h-2.003l-1.631-4.336h-7.04l-1.678,4.336H70.902
				z M75.048,476.411h5.806l-2.891-7.552L75.048,476.411z"/>
			<path class="st1" d="M87.831,482.471v-16.316h6.829c2.798,0,4.5,1.91,4.5,4.918c0,3.005-1.702,4.894-4.5,4.894h-4.801v6.504
				H87.831z M89.859,474.172h4.453c1.678,0,2.773-1.142,2.773-3.098c0-1.981-1.095-3.123-2.773-3.123h-4.453V474.172z"/>
			<path class="st1" d="M101.99,476.947v-5.269c0-3.706,2.307-5.873,6.246-5.873c1.703,0,3.101,0.465,4.242,1.423
				c1.142,0.955,1.703,2.329,1.703,4.125v0.232h-2.028v-0.232c0-1.191-0.397-2.099-1.191-2.729
				c-0.769-0.627-1.699-0.955-2.748-0.955c-2.729,0-4.196,1.424-4.196,3.871v5.548c0,2.447,1.467,3.867,4.196,3.867
				c1.048,0,1.979-0.326,2.748-0.955c0.794-0.629,1.191-1.538,1.191-2.726v-0.233h2.028v0.233c0,1.793-0.561,3.169-1.703,4.124
				c-1.141,0.955-2.54,1.421-4.242,1.421C104.297,482.818,101.99,480.653,101.99,476.947z"/>
			<path class="st1" d="M121.158,482.471v-14.52h-4.965v-1.795h11.933v1.795h-4.94v14.52H121.158z"/>
			<path class="st1" d="M130.839,482.471v-16.316h6.853c2.773,0,4.382,1.491,4.382,4.289c0,1.746-0.701,2.937-2.122,3.542
				c1.842,0.536,2.751,1.864,2.751,4.032c0,2.869-1.656,4.453-4.428,4.453H130.839z M132.867,473.356h4.522
				c1.703,0,2.658-1.002,2.658-2.704c0-1.746-0.933-2.702-2.704-2.702h-4.475V473.356z M132.867,480.675h5.058
				c1.771,0,2.751-1.001,2.751-2.773c0-1.795-0.98-2.822-2.751-2.822h-5.058V480.675z"/>
			<path class="st1" d="M146.115,482.471v-16.316h10.163v1.795h-8.135v5.406h7.04v1.795h-7.04v5.524h8.159v1.796H146.115z"/>
			<path class="st1" d="M159.737,482.471v-16.316h2.028v7.226h7.946v-7.226h2.028v16.316h-2.028v-7.297h-7.946v7.297H159.737z"/>
			<path class="st1" d="M176.086,482.471v-16.316h2.028v7.226h7.946v-7.226h2.028v16.316h-2.028v-7.297h-7.946v7.297H176.086z"/>
			<path class="st1" d="M191.967,471.653c0-3.657,2.425-5.849,6.271-5.849s6.271,2.192,6.271,5.849v5.316
				c0,3.659-2.425,5.849-6.271,5.849s-6.271-2.19-6.271-5.849V471.653z M202.48,477.062v-5.502c0-2.33-1.563-3.892-4.243-3.892
				c-2.704,0-4.242,1.563-4.242,3.892v5.502c0,2.332,1.538,3.892,4.242,3.892C200.917,480.954,202.48,479.394,202.48,477.062z"/>
			<path class="st1" d="M208.387,482.471v-16.316h10.163v1.795h-8.134v5.406h7.04v1.795h-7.04v5.524h8.159v1.796H208.387z"/>
			<path class="st1" d="M227.815,482.471v-16.316h11.862v16.316h-2.028v-14.52h-7.806v14.52H227.815z"/>
			<path class="st1" d="M244.024,482.471v-16.316h6.829c2.797,0,4.497,1.91,4.497,4.918c0,3.005-1.699,4.894-4.497,4.894h-4.801
				v6.504H244.024z M246.052,474.172h4.451c1.678,0,2.772-1.142,2.772-3.098c0-1.981-1.095-3.123-2.772-3.123h-4.451V474.172z"/>
			<path class="st1" d="M258.18,471.653c0-3.657,2.425-5.849,6.271-5.849c3.846,0,6.271,2.192,6.271,5.849v5.316
				c0,3.659-2.425,5.849-6.271,5.849c-3.846,0-6.271-2.19-6.271-5.849V471.653z M268.693,477.062v-5.502
				c0-2.33-1.563-3.892-4.242-3.892c-2.704,0-4.243,1.563-4.243,3.892v5.502c0,2.332,1.538,3.892,4.243,3.892
				C267.13,480.954,268.693,479.394,268.693,477.062z"/>
			<path class="st1" d="M274.6,482.471v-16.316h2.028v12.796l8.181-12.796h1.864v16.316h-2.028v-12.796l-8.181,12.796H274.6z"/>
			<path class="st1" d="M291.836,481.397c-1.144-0.955-1.724-2.332-1.749-4.124h2.028c0.022,2.401,1.749,3.681,4.171,3.681
				c2.308,0,3.613-1.12,3.613-3.098c0-1.774-1.259-2.822-3.38-2.822h-2.283v-1.793h2.283c1.866,0,2.962-0.933,2.962-2.636
				c0-1.699-1.234-2.937-3.381-2.937c-2.168,0-3.635,1.259-3.635,3.685h-2.028c0.022-1.818,0.536-3.194,1.585-4.125
				c1.048-0.958,2.422-1.423,4.078-1.423c1.703,0,3.03,0.419,3.985,1.281c0.955,0.865,1.445,1.96,1.445,3.334
				c0,1.796-0.838,3.03-2.494,3.659c1.703,0.465,2.891,1.796,2.891,3.777c0,3.005-2.143,4.963-5.71,4.963
				C294.444,482.818,292.977,482.353,291.836,481.397z"/>
			<path class="st1" d="M305.337,482.471v-16.316h6.854c2.773,0,4.382,1.491,4.382,4.289c0,1.746-0.701,2.937-2.121,3.542
				c1.842,0.536,2.751,1.864,2.751,4.032c0,2.869-1.656,4.453-4.429,4.453H305.337z M307.366,473.356h4.522
				c1.703,0,2.658-1.002,2.658-2.704c0-1.746-0.934-2.702-2.704-2.702h-4.475V473.356z M307.366,480.675h5.058
				c1.771,0,2.751-1.001,2.751-2.773c0-1.795-0.98-2.822-2.751-2.822h-5.058V480.675z"/>
			<path class="st1" d="M320.148,471.653c0-3.657,2.425-5.849,6.271-5.849c3.846,0,6.271,2.192,6.271,5.849v5.316
				c0,3.659-2.425,5.849-6.271,5.849c-3.846,0-6.271-2.19-6.271-5.849V471.653z M330.661,477.062v-5.502
				c0-2.33-1.563-3.892-4.242-3.892c-2.704,0-4.242,1.563-4.242,3.892v5.502c0,2.332,1.538,3.892,4.242,3.892
				C329.098,480.954,330.661,479.394,330.661,477.062z"/>
			<path class="st1" d="M335.052,485.802v-5.127h1.237c0.44-0.583,0.791-1.095,1.048-1.585c0.536-1.002,1.07-3.194,1.07-5.967
				v-6.969h9.604v14.52h2.004v5.127h-1.864v-3.331h-11.236v3.331H335.052z M345.984,480.675V467.95h-5.71v5.173
				c0,1.352-0.093,2.54-0.304,3.588c-0.186,1.051-0.397,1.82-0.605,2.308c-0.211,0.49-0.515,1.026-0.887,1.656H345.984z"/>
			<path class="st1" d="M352.613,476.947v-5.269c0-3.706,2.307-5.873,6.249-5.873c1.7,0,3.098,0.465,4.24,1.423
				c1.144,0.955,1.703,2.329,1.703,4.125v0.232h-2.028v-0.232c0-1.191-0.397-2.099-1.188-2.729
				c-0.769-0.627-1.703-0.955-2.751-0.955c-2.726,0-4.196,1.424-4.196,3.871v5.548c0,2.447,1.47,3.867,4.196,3.867
				c1.048,0,1.981-0.326,2.751-0.955c0.791-0.629,1.188-1.538,1.188-2.726v-0.233h2.028v0.233c0,1.793-0.558,3.169-1.703,4.124
				c-1.141,0.955-2.54,1.421-4.24,1.421C354.92,482.818,352.613,480.653,352.613,476.947z"/>
			<path class="st1" d="M371.781,482.471v-14.52h-4.962v-1.795h11.934v1.795h-4.943v14.52H371.781z"/>
			<path class="st1" d="M381.465,482.471v-16.316h6.851c2.775,0,4.382,1.491,4.382,4.289c0,1.746-0.698,2.937-2.121,3.542
				c1.842,0.536,2.751,1.864,2.751,4.032c0,2.869-1.653,4.453-4.429,4.453H381.465z M383.493,473.356h4.522
				c1.7,0,2.655-1.002,2.655-2.704c0-1.746-0.93-2.702-2.701-2.702h-4.475V473.356z M383.493,480.675h5.055
				c1.774,0,2.751-1.001,2.751-2.773c0-1.795-0.977-2.822-2.751-2.822h-5.055V480.675z"/>
			<path class="st1" d="M396.741,482.471v-16.316h10.163v1.795h-8.135v5.406h7.037v1.795h-7.037v5.524h8.157v1.796H396.741z"/>
			<path class="st1" d="M410.361,482.471v-16.316h2.028v7.226h7.949v-7.226h2.028v16.316h-2.028v-7.297h-7.949v7.297H410.361z"/>
			<path class="st1" d="M426.709,482.471v-16.316h2.028v7.226h7.948v-7.226h2.028v16.316h-2.028v-7.297h-7.948v7.297H426.709z"/>
			<path class="st1" d="M442.592,471.653c0-3.657,2.425-5.849,6.271-5.849c3.846,0,6.268,2.192,6.268,5.849v5.316
				c0,3.659-2.422,5.849-6.268,5.849c-3.846,0-6.271-2.19-6.271-5.849V471.653z M453.103,477.062v-5.502
				c0-2.33-1.56-3.892-4.24-3.892c-2.704,0-4.243,1.563-4.243,3.892v5.502c0,2.332,1.538,3.892,4.243,3.892
				C451.543,480.954,453.103,479.394,453.103,477.062z"/>
			<path class="st1" d="M459.012,482.471v-16.316h10.163v1.795h-8.135v5.406h7.037v1.795h-7.037v5.524h8.157v1.796H459.012z"/>
			<path class="st1" d="M477.972,471.653c0-3.657,2.425-5.849,6.271-5.849c3.846,0,6.271,2.192,6.271,5.849v5.316
				c0,3.659-2.425,5.849-6.271,5.849c-3.846,0-6.271-2.19-6.271-5.849V471.653z M488.486,477.062v-5.502
				c0-2.33-1.563-3.892-4.243-3.892c-2.704,0-4.242,1.563-4.242,3.892v5.502c0,2.332,1.538,3.892,4.242,3.892
				C486.923,480.954,488.486,479.394,488.486,477.062z"/>
			<path class="st1" d="M494.392,482.471v-16.316h10.861v1.795h-8.832v4.708h5.312c2.797,0,4.475,1.886,4.475,4.894
				c0,3.006-1.678,4.919-4.475,4.919H494.392z M496.421,480.675h4.94c1.653,0,2.773-1.141,2.773-3.123
				c0-1.957-1.119-3.101-2.773-3.101h-4.94V480.675z"/>
			<path class="st1" d="M511.206,482.471v-14.52h-3.917v-1.795h5.945v6.503h4.708c2.89,0,4.593,1.886,4.593,4.894
				c0,3.052-1.703,4.919-4.593,4.919H511.206z M513.234,480.675h4.475c1.678,0,2.751-1.141,2.751-3.123
				c0-1.935-1.073-3.101-2.751-3.101h-4.475V480.675z"/>
			<path class="st1" d="M525.831,482.471v-16.316h10.163v1.795h-8.135v5.406h7.04v1.795h-7.04v5.524h8.159v1.796H525.831z"/>
			<path class="st1" d="M537.937,485.802v-5.127h1.234c0.444-0.583,0.794-1.095,1.048-1.585c0.536-1.002,1.073-3.194,1.073-5.967
				v-6.969h9.602v14.52h2.006v5.127h-1.867v-3.331h-11.233v3.331H537.937z M548.869,480.675V467.95h-5.712v5.173
				c0,1.352-0.093,2.54-0.304,3.588c-0.186,1.051-0.394,1.82-0.605,2.308c-0.211,0.49-0.512,1.026-0.887,1.656H548.869z"/>
			<path class="st1" d="M555.964,482.471v-16.316h2.028v12.796l8.182-12.796h1.864v16.316h-2.028v-12.796l-8.182,12.796H555.964z"/>
			<path class="st1" d="M572.383,482.471v-16.316h2.028v7.226h7.949v-7.226h2.028v16.316h-2.028v-7.297h-7.949v7.297H572.383z"/>
			<path class="st1" d="M588.732,482.471v-16.316h10.163v1.795h-8.135v5.406h7.04v1.795h-7.04v5.524h8.157v1.796H588.732z"/>
			<path class="st1" d="M602.352,482.471v-16.316h2.028v7.226h7.949v-7.226h2.025v16.316h-2.025v-7.297h-7.949v7.297H602.352z"/>
			<path class="st1" d="M618.701,482.471v-16.316h2.028v12.796l8.181-12.796h1.864v16.316h-2.028v-12.796l-8.181,12.796H618.701z"/>
			<path class="st1" d="M635.121,482.471v-16.316h10.163v1.795h-8.134v5.406h7.04v1.795h-7.04v5.524h8.157v1.796H635.121z"/>
			<path class="st1" d="M200.665,509.385c-1.117-0.955-1.678-2.354-1.678-4.171h1.913c0,1.188,0.394,2.121,1.188,2.773
				c0.791,0.629,1.724,0.955,2.797,0.955c2.726,0,4.264-1.399,4.264-3.799v-1.981h-6.386v-1.793h6.386v-1.913
				c0-2.401-1.538-3.799-4.264-3.799c-1.073,0-2.007,0.328-2.797,0.98c-0.794,0.63-1.188,1.563-1.188,2.751h-1.913
				c0-1.817,0.561-3.194,1.678-4.149c1.12-0.955,2.518-1.445,4.221-1.445c3.938,0,6.292,2.146,6.292,5.802v5.409
				c0,3.659-2.354,5.802-6.292,5.802C203.184,510.805,201.785,510.34,200.665,509.385z"/>
			<path class="st1" d="M213.262,508.591c1.237,0,2.075-0.44,2.518-1.327c0.444-0.884,0.676-2.612,0.676-5.173v-7.949h9.931v16.316
				h-2.028v-14.52h-5.992v6.361c0,3.008-0.394,5.129-1.21,6.342c-0.793,1.21-2.099,1.818-3.895,1.818V508.591z"/>
			<path class="st1" d="M230.73,510.457v-16.316h10.163v1.795h-8.135v5.406h7.04v1.796h-7.04v5.524h8.159v1.795H230.73z"/>
			<path class="st1" d="M244.35,510.457v-16.316h2.028v7.226h2.611l4.73-7.226h1.889v0.676l-4.847,7.341l5.151,7.623v0.676h-2.004
				l-4.897-7.297h-2.633v7.297H244.35z"/>
			<path class="st1" d="M261.958,510.457v-14.52h-4.965v-1.795h11.934v1.795h-4.941v14.52H261.958z"/>
			<path class="st1" d="M271.638,510.457v-16.316h6.829c2.797,0,4.497,1.91,4.497,4.918c0,3.006-1.7,4.894-4.497,4.894h-4.801v6.504
				H271.638z M273.667,502.159h4.451c1.678,0,2.773-1.141,2.773-3.098c0-1.981-1.095-3.123-2.773-3.123h-4.451V502.159z"/>
			<path class="st1" d="M285.795,499.641c0-3.657,2.425-5.849,6.271-5.849c3.846,0,6.268,2.193,6.268,5.849v5.315
				c0,3.659-2.422,5.849-6.268,5.849c-3.846,0-6.271-2.19-6.271-5.849V499.641z M296.305,505.049v-5.502
				c0-2.329-1.56-3.892-4.24-3.892c-2.704,0-4.242,1.563-4.242,3.892v5.502c0,2.332,1.538,3.892,4.242,3.892
				C294.745,508.941,296.305,507.381,296.305,505.049z"/>
			<path class="st1" d="M303.216,509.385c-1.119-0.955-1.678-2.354-1.678-4.171h1.91c0,1.188,0.397,2.121,1.188,2.773
				c0.794,0.629,1.724,0.955,2.798,0.955c2.729,0,4.267-1.399,4.267-3.799v-1.981h-6.388v-1.793h6.388v-1.913
				c0-2.401-1.538-3.799-4.267-3.799c-1.073,0-2.004,0.328-2.798,0.98c-0.791,0.63-1.188,1.563-1.188,2.751h-1.91
				c0-1.817,0.558-3.194,1.678-4.149c1.12-0.955,2.518-1.445,4.218-1.445c3.938,0,6.292,2.146,6.292,5.802v5.409
				c0,3.659-2.354,5.802-6.292,5.802C305.735,510.805,304.336,510.34,303.216,509.385z"/>
			<path class="st1" d="M317.605,510.457v-16.316h2.028v7.226h7.949v-7.226h2.028v16.316h-2.028v-7.297h-7.949v7.297H317.605z"/>
			<path class="st1" d="M333.957,510.457v-16.316h10.163v1.795h-8.135v5.406h7.037v1.796h-7.037v5.524h8.157v1.795H333.957z"/>
			<path class="st1" d="M347.577,510.457v-16.316h6.829c2.797,0,4.497,1.91,4.497,4.918c0,3.006-1.7,4.894-4.497,4.894h-4.801v6.504
				H347.577z M349.605,502.159h4.45c1.678,0,2.773-1.141,2.773-3.098c0-1.981-1.095-3.123-2.773-3.123h-4.45V502.159z"/>
			<path class="st1" d="M362.198,510.457v-16.316h9.952v1.795h-7.924v14.52H362.198z"/>
			<path class="st1" d="M375.331,510.457v-16.316h10.163v1.795h-8.134v5.406h7.037v1.796h-7.037v5.524h8.157v1.795H375.331z"/>
			<path class="st1" d="M392.282,510.457v-14.52h-4.963v-1.795h11.934v1.795h-4.943v14.52H392.282z"/>
			<path class="st1" d="M401.966,510.457v-16.316h2.028v12.796l8.181-12.796h1.864v16.316h-2.028v-12.796l-8.181,12.796H401.966z"/>
			<path class="st1" d="M418.383,510.457v-16.316h2.028v7.226h2.611l4.73-7.226h1.889v0.676l-4.847,7.341l5.151,7.623v0.676h-2.004
				l-4.897-7.297h-2.633v7.297H418.383z"/>
			<path class="st1" d="M432.657,510.457v-16.316h2.028v12.796l8.181-12.796h1.864v16.316h-2.028v-12.796l-8.181,12.796H432.657z"/>
		</g>
	</g>
</g>
</svg>
