<?xml version="1.0" standalone="no"?>
<!DOCTYPE svg PUBLIC "-//W3C//DTD SVG 1.1//EN" "http://www.w3.org/Graphics/SVG/1.1/DTD/svg11.dtd" >
<svg xmlns="http://www.w3.org/2000/svg" xmlns:xlink="http://www.w3.org/1999/xlink" version="1.1">
<metadata></metadata>
<defs>
<font id="brutal_typethin" horiz-adv-x="1069" >
<font-face units-per-em="2048" ascent="1647" descent="-401" />
<missing-glyph horiz-adv-x="555" />
<glyph unicode="&#xfb01;" horiz-adv-x="1021" d="M51 1004v20h193v150q0 135 67 204.5t195 69.5l65 -4v-21q-46 4 -65 4q-116 0 -179 -64.5t-63 -188.5v-150h574v-1024h-21v1004h-553v-1004h-20v1004h-193zM817 1219v225h21v-225h-21z" />
<glyph unicode="&#xfb02;" horiz-adv-x="1021" d="M51 1004v20h193v150q0 135 67 204.5t195 69.5l65 -4v-21q-46 4 -65 4q-116 0 -179 -64.5t-63 -188.5v-150h307v-20h-307v-1004h-20v1004h-193zM817 0v1444h21v-1444h-21z" />
<glyph horiz-adv-x="0" />
<glyph horiz-adv-x="682" />
<glyph unicode=" "  horiz-adv-x="555" />
<glyph unicode="&#x09;" horiz-adv-x="555" />
<glyph unicode="&#xa0;" horiz-adv-x="555" />
<glyph unicode="!" horiz-adv-x="471" d="M225 0v252h21v-252h-21zM225 451v983h21v-983h-21z" />
<glyph unicode="&#x22;" horiz-adv-x="561" d="M102 1024v420h21v-420h-21zM438 1024v420h21v-420h-21z" />
<glyph unicode="#" horiz-adv-x="1196" d="M41 436v21h264l98 520h-280v20h285l81 437h19v-11l-80 -426h442l82 437h19v-11l-80 -426h264v-20h-268l-99 -520h285v-21h-289l-82 -436h-18v10l80 426h-442l-82 -436h-19v10l80 426h-260zM326 457h442l98 520h-442z" />
<glyph unicode="$" horiz-adv-x="1251" d="M113 465h20q0 -235 154 -356q155 -119 366 -119q205 0 319.5 93.5t114.5 244.5q0 121 -74.5 198.5t-244.5 141.5l-258 98q-196 72 -272 145q-72 75 -72 209q0 155 119.5 249.5t324.5 94.5h8v195h21v-195q214 -8 338.5 -131t124.5 -352h-21q0 236 -135 350 q-131 113 -336 113q-194 0 -309 -90t-115 -234q0 -121 64 -188q63 -66 217 -125l254 -96q206 -78 295 -158q92 -80 92 -225q0 -162 -119.5 -260.5t-335.5 -98.5h-14v-194h-21v196q-78 3 -150 22.5t-137.5 59t-113 95.5t-76 137.5t-28.5 179.5z" />
<glyph unicode="%" horiz-adv-x="1517" d="M102 987v203q0 124 75.5 199t209.5 75q137 0 212 -74t75 -200v-203q0 -126 -75 -200t-212 -74q-134 0 -209.5 75t-75.5 199zM123 985q0 -114 70.5 -183t193.5 -69q126 0 196 69.5t70 182.5v205q0 115 -70 184.5t-196 69.5q-123 0 -193.5 -70t-70.5 -184v-205zM352 0v10 l789 1424h18v-11l-788 -1423h-19zM844 244v202q0 124 75 199.5t209 75.5q137 0 212 -74.5t75 -200.5v-202q0 -126 -75 -200.5t-212 -74.5q-134 0 -209 75.5t-75 199.5zM864 242q0 -114 70.5 -183t193.5 -69q126 0 196.5 69.5t70.5 182.5v204q0 115 -70.5 184.5t-196.5 69.5 q-123 0 -193.5 -70t-70.5 -184v-204z" />
<glyph unicode="&#x26;" horiz-adv-x="1187" d="M70 362q0 117 56.5 205t186.5 193l82 67l-55 64q-79 85 -117 149q-33 59 -33 144q0 116 75 190t188 74q115 0 188.5 -73.5t73.5 -186.5q0 -130 -150 -250l-141 -115l522 -592q107 165 107 400h20q0 -242 -112 -414l182 -207v-10h-19l-176 199q-163 -230 -450 -230 q-189 0 -310 109q-118 109 -118 284zM90 362q0 -164 115 -270q114 -102 291 -102q282 0 438 225l-524 598l-84 -68q-125 -102 -180.5 -187t-55.5 -196zM211 1184q0 -64 29 -127q26 -54 112 -152l60 -67l127 104q155 125 155 244q0 105 -68 173t-173 68t-173.5 -67.5 t-68.5 -175.5z" />
<glyph unicode="'" horiz-adv-x="225" d="M102 1024v420h21v-420h-21z" />
<glyph unicode="(" horiz-adv-x="585" d="M205 -16v1220q0 148 90.5 230t249.5 82v-21q-149 0 -234.5 -76.5t-85.5 -216.5v-1216q0 -140 85.5 -216.5t234.5 -76.5v-21q-159 0 -249.5 82t-90.5 230z" />
<glyph unicode=")" horiz-adv-x="585" d="M41 -307q149 0 234 76.5t85 216.5v1216q0 140 -85 216.5t-234 76.5v21q159 0 249.5 -82t90.5 -230v-1220q0 -148 -90.5 -230t-249.5 -82v21z" />
<glyph unicode="*" horiz-adv-x="794" d="M61 881l316 182l-316 182l11 17l315 -181v363h21v-363l315 183l10 -19l-315 -182l315 -182l-10 -17l-315 180v-362h-21v362l-315 -182z" />
<glyph unicode="+" horiz-adv-x="1019" d="M102 631v20h398v398h20v-398h398v-20h-398v-398h-20v398h-398z" />
<glyph unicode="," horiz-adv-x="346" d="M51 -158l174 410h19v-10l-174 -410h-19v10z" />
<glyph unicode="-" horiz-adv-x="880" d="M143 631v20h594v-20h-594z" />
<glyph unicode="." horiz-adv-x="348" d="M164 0v252h20v-252h-20z" />
<glyph unicode="/" horiz-adv-x="915" d="M102 -195l693 1711h18v-11l-692 -1710h-19v10z" />
<glyph unicode="0" horiz-adv-x="1200" d="M164 395v643q0 200 117 313t319 113t319 -113t117 -313v-643q0 -200 -117 -313t-319 -113t-319 113t-117 313zM184 395q0 -190 111.5 -297.5t304.5 -107.5t304.5 107.5t111.5 297.5v645q0 190 -111.5 298t-304.5 108t-304.5 -108t-111.5 -298v-645z" />
<glyph unicode="1" horiz-adv-x="471" d="M53 1413v10l8 11h205v-1434h-20v1413h-193z" />
<glyph unicode="2" horiz-adv-x="1142" d="M123 1030q0 207 119 320q120 114 301 114q183 0 293 -110t110 -303q0 -176 -121 -336q-62 -84 -102 -127q-87 -93 -107 -113l-24 -24l-420 -431h823v-20h-852v20l435 445q177 180 237 272q111 163 111 314q0 182 -105 287.5t-278 105.5q-172 0 -287 -109 q-113 -107 -113 -305h-20z" />
<glyph unicode="3" horiz-adv-x="1140" d="M123 377h20q6 -178 123.5 -282.5t308.5 -104.5q189 0 295.5 105.5t106.5 295.5q0 154 -98 252q-93 100 -256 100h-146v21h152q145 0 230 89.5t85 236.5q0 149 -102 251q-102 105 -275 105q-180 0 -287.5 -111t-107.5 -305h-20q0 202 112.5 318t302.5 116q183 0 291 -108 q107 -107 107 -266q0 -136 -71.5 -225.5t-186.5 -110.5q131 -25 210.5 -121t79.5 -242q0 -198 -112 -310t-310 -112q-196 0 -323 109q-123 111 -129 299z" />
<glyph unicode="4" horiz-adv-x="1091" d="M82 375v20l627 1039h18v-11l-618 -1028h690v447h20v-447h211v-20h-211v-375h-20v375h-717z" />
<glyph unicode="5" horiz-adv-x="1161" d="M150 354h22q26 -171 138 -267.5t280 -96.5q192 0 299.5 121.5t107.5 326.5q0 216 -106 329.5t-295 113.5q-210 0 -342 -156h-18l57 709h641v-21h-623l-53 -653q58 64 148.5 102.5t187.5 38.5q200 0 312 -119t112 -344q0 -212 -114 -340.5t-314 -128.5 q-181 0 -297.5 101.5t-142.5 283.5z" />
<glyph unicode="6" horiz-adv-x="1146" d="M143 412q0 106 31 188q35 84 105 197l399 637h18v-11l-434 -690q117 123 330 123q208 0 320 -118.5t112 -325.5q0 -206 -114.5 -324.5t-325.5 -118.5t-326 118.5t-115 324.5zM164 412q0 -195 110 -308.5t310 -113.5t310 113.5t110 308.5q0 198 -106.5 311t-305.5 113 q-184 0 -307 -111q-121 -112 -121 -313z" />
<glyph unicode="7" horiz-adv-x="1071" d="M123 1055v379h846v-21l-543 -1413h-16v10l534 1403h-801v-358h-20z" />
<glyph unicode="8" horiz-adv-x="1216" d="M143 377q0 153 89 250t233 125q-118 21 -194 109.5t-76 225.5q0 170 110 273.5t303 103.5t303.5 -103.5t110.5 -273.5q0 -137 -76 -225.5t-194 -109.5q142 -28 231.5 -125t89.5 -250q0 -191 -121 -299.5t-344 -108.5t-344 108.5t-121 299.5zM164 377q0 -178 113.5 -282.5 t328.5 -104.5q217 0 332 104.5t115 282.5q0 150 -105 258q-100 106 -315 106h-49q-215 0 -318 -106q-102 -108 -102 -258zM215 1098q0 -157 92.5 -246.5t276.5 -89.5h49q184 0 276 89.5t92 246.5q0 155 -105 250.5t-288 95.5q-182 0 -287.5 -95.5t-105.5 -250.5z" />
<glyph unicode="9" horiz-adv-x="1146" d="M123 1022q0 206 114.5 324t325.5 118t326 -118.5t115 -323.5q0 -112 -33 -191q-27 -70 -103 -194l-399 -637h-18v10l434 690q-116 -122 -330 -122q-208 0 -320 118.5t-112 325.5zM143 1022q0 -198 106.5 -311t305.5 -113q185 0 305 111q123 111 123 313q0 195 -110 308.5 t-310 113.5t-310 -113.5t-110 -308.5z" />
<glyph unicode=":" horiz-adv-x="348" d="M164 0v252h20v-252h-20zM164 772v252h20v-252h-20z" />
<glyph unicode=";" horiz-adv-x="366" d="M51 -158l174 410h19v-10l-174 -410h-19v10zM172 772v252h21v-252h-21z" />
<glyph unicode="&#x3c;" horiz-adv-x="942" d="M102 631v20l717 398h21v-11l-715 -397l715 -397v-11h-21z" />
<glyph unicode="=" horiz-adv-x="1015" d="M102 410v20h811v-20h-811zM102 854v20h811v-20h-811z" />
<glyph unicode="&#x3e;" horiz-adv-x="942" d="M102 233v11l713 397l-713 397v11h21l717 -398v-20l-717 -398h-21z" />
<glyph unicode="?" horiz-adv-x="1017" d="M82 1030q0 201 118.5 317.5t311.5 116.5q194 0 297 -106q106 -103 106 -256q0 -146 -98 -244q-44 -46 -73 -69t-89 -62l-18 -12l-119 -78v-186h-20v196l125 82q107 70 180 143q92 92 92 230q0 144 -100 241q-98 101 -285 101q-182 0 -295 -110.5t-113 -303.5h-20zM498 0 v252h20v-252h-20z" />
<glyph unicode="@" horiz-adv-x="2080" d="M164 578q0 399 248 641q248 245 647 245q371 0 612 -223q246 -221 246 -586q0 -240 -94 -389q-91 -147 -236 -147q-77 0 -127.5 52.5t-50.5 147.5v17q-196 -217 -418 -217q-168 0 -262 105t-94 276v151q0 171 94 276t262 105q222 0 418 -217v193h21v-674q0 -98 43 -146.5 t114 -48.5q130 0 219 142q90 146 90 374q0 355 -239 572t-598 217q-390 0 -633 -240q-242 -239 -242 -626q0 -379 244 -623t631 -244h51v-20h-51q-397 0 -645 248q-250 250 -250 639zM655 500q0 -163 89 -262t247 -99q212 0 418 226v421q-206 226 -418 226q-158 0 -247 -99 t-89 -262v-151z" />
<glyph unicode="A" horiz-adv-x="1331" d="M61 0v10l592 1424h25l592 -1424v-10h-19l-186 446h-801l-184 -446h-19zM272 467h785l-391 944z" />
<glyph unicode="B" horiz-adv-x="1306" d="M205 0v1434h594q158 0 246 -93t88 -258q0 -137 -61.5 -223t-164.5 -112q126 -19 201.5 -115.5t75.5 -257.5q0 -172 -91 -273.5t-249 -101.5h-639zM225 20h613q152 0 238.5 96t86.5 261q0 166 -86 261t-239 95h-613v-713zM225 754h586q141 0 221 88t80 241 q0 155 -82.5 242.5t-230.5 87.5h-574v-659z" />
<glyph unicode="C" horiz-adv-x="1343" d="M164 485v463q0 242 143 379t387 137q216 0 359 -125q147 -123 147 -340v-20h-20v20q0 205 -142 326q-137 119 -344 119q-236 0 -373 -132t-137 -364v-463q0 -232 137 -363.5t373 -131.5q207 0 344 119q142 121 142 325v21h20v-21q0 -216 -147 -342q-144 -123 -359 -123 q-244 0 -387 137t-143 379z" />
<glyph unicode="D" horiz-adv-x="1361" d="M205 0v1434h473q241 0 380.5 -135t139.5 -373v-418q0 -238 -139.5 -373t-380.5 -135h-473zM225 20h453q232 0 366 130t134 358v418q0 228 -133.5 357.5t-366.5 129.5h-453v-1393z" />
<glyph unicode="E" horiz-adv-x="1163" d="M205 0v1434h835v-21h-815v-680h717v-20h-717v-693h815v-20h-835z" />
<glyph unicode="F" horiz-adv-x="1142" d="M205 0v1434h835v-21h-815v-680h717v-20h-717v-713h-20z" />
<glyph unicode="G" horiz-adv-x="1406" d="M164 485v463q0 240 145 379q146 137 398 137q215 0 364 -125q152 -125 152 -340v-20h-21v20q0 205 -145 326q-143 119 -350 119q-243 0 -383 -132t-140 -364v-463q0 -232 140 -363.5t383 -131.5q184 0 303 81.5t192 260.5v319h-432v21h453v-672h-21v283 q-126 -314 -495 -314q-252 0 -398 137q-145 139 -145 379z" />
<glyph unicode="H" horiz-adv-x="1392" d="M205 0v1434h20v-705h942v705h21v-1434h-21v709h-942v-709h-20z" />
<glyph unicode="I" horiz-adv-x="430" d="M205 0v1434h20v-1434h-20z" />
<glyph unicode="J" horiz-adv-x="1136" d="M61 403v52h21v-52q0 -194 114 -303.5t310 -109.5q198 0 312 109.5t114 303.5v1031h20v-1031q0 -202 -120.5 -318t-325.5 -116t-325 115.5t-120 318.5z" />
<glyph unicode="K" horiz-adv-x="1181" d="M205 0v1434h20v-705h340l514 705h19v-11l-514 -704l536 -709v-10h-18l-535 709h-342v-709h-20z" />
<glyph unicode="L" horiz-adv-x="1126" d="M205 0v1434h20v-1414h840v-20h-860z" />
<glyph unicode="M" horiz-adv-x="1613" d="M205 0v1434h20l582 -861l582 861h20v-1434h-20v1395l-574 -848h-16l-574 848v-1395h-20z" />
<glyph unicode="N" horiz-adv-x="1392" d="M205 0v1434h20l942 -1397v1397h21v-1434h-19l-944 1395v-1395h-20z" />
<glyph unicode="O" horiz-adv-x="1368" d="M164 477v479q0 238 139.5 373t380.5 135t380.5 -135t139.5 -373v-479q0 -238 -139.5 -373t-380.5 -135t-380.5 135t-139.5 373zM184 477q0 -228 133.5 -357.5t366.5 -129.5t366.5 129.5t133.5 357.5v479q0 228 -134 358t-366 130t-366 -130t-134 -358v-479z" />
<glyph unicode="P" horiz-adv-x="1245" d="M205 0v1434h553q176 0 275.5 -110t99.5 -300t-99.5 -300t-275.5 -110h-533v-614h-20zM225 635h533q165 0 259.5 104t94.5 285t-94.5 285t-259.5 104h-533v-778z" />
<glyph unicode="Q" horiz-adv-x="1378" d="M164 477v479q0 238 139.5 373t380.5 135t380.5 -135t139.5 -373v-479q0 -289 -198 -420l208 -290v-11h-18l-207 289q-128 -76 -305 -76q-241 0 -380.5 135t-139.5 373zM184 477q0 -228 133.5 -357.5t366.5 -129.5t366.5 129.5t133.5 357.5v479q0 228 -134 358t-366 130 t-366 -130t-134 -358v-479z" />
<glyph unicode="R" horiz-adv-x="1290" d="M205 0v1434h571q176 0 275.5 -110t99.5 -300q0 -181 -90 -288.5t-246 -121.5l369 -604v-10h-19l-374 614h-566v-614h-20zM225 635h551q165 0 259.5 104t94.5 285t-94.5 285t-259.5 104h-551v-778z" />
<glyph unicode="S" horiz-adv-x="1251" d="M113 465h20q0 -235 154 -356q155 -119 366 -119q205 0 319.5 93.5t114.5 244.5q0 121 -74.5 198.5t-244.5 141.5l-258 98q-196 72 -272 145q-72 75 -72 209q0 155 119.5 249.5t324.5 94.5q216 0 355 -121q137 -119 137 -362h-21q0 236 -135 350q-131 113 -336 113 q-194 0 -309 -90t-115 -234q0 -121 64 -188q63 -66 217 -125l254 -96q206 -78 295 -158q92 -80 92 -225q0 -162 -119.5 -260.5t-335.5 -98.5q-82 0 -158 17t-146 55.5t-122 95t-83 141t-31 187.5z" />
<glyph unicode="T" horiz-adv-x="1105" d="M61 1413v21h983v-21h-481v-1413h-20v1413h-482z" />
<glyph unicode="U" horiz-adv-x="1351" d="M184 485v949h21v-949q0 -232 126.5 -363.5t344.5 -131.5t344.5 131.5t126.5 363.5v949h20v-949q0 -240 -133 -379q-131 -137 -358 -137q-228 0 -359 137q-133 139 -133 379z" />
<glyph unicode="V" horiz-adv-x="1331" d="M61 1423v11h19l586 -1411l585 1411h19v-11l-592 -1423h-25z" />
<glyph unicode="W" horiz-adv-x="1601" d="M102 1423v11h19l270 -1403l402 911h16l401 -911l271 1403h18v-11l-274 -1423h-23l-401 913l-402 -913h-22z" />
<glyph unicode="X" horiz-adv-x="1200" d="M82 0v10l504 711l-504 702v11h18l500 -699l500 699h18v-11l-504 -704l504 -709v-10h-18l-500 705l-500 -705h-18z" />
<glyph unicode="Y" horiz-adv-x="1220" d="M41 1423v11h18l551 -842l551 842h19v-11l-559 -854v-569h-21v569z" />
<glyph unicode="Z" horiz-adv-x="1142" d="M102 0v20l895 1393h-868v21h893v-21l-895 -1393h913v-20h-938z" />
<glyph unicode="[" horiz-adv-x="604" d="M205 -328v1844h399v-21h-379v-1802h379v-21h-399z" />
<glyph unicode="\" horiz-adv-x="915" d="M102 1505v11h19l692 -1711v-10h-18z" />
<glyph unicode="]" horiz-adv-x="604" d="M0 -307h379v1802h-379v21h399v-1844h-399v21z" />
<glyph unicode="^" horiz-adv-x="950" d="M102 793v10l361 641h24l361 -641v-10h-19l-354 634l-354 -634h-19z" />
<glyph unicode="_" horiz-adv-x="1026" d="M-2 -162h1030v-20h-1030v20z" />
<glyph unicode="`" horiz-adv-x="565" d="M143 1485v10h19l260 -287h-27z" />
<glyph unicode="a" d="M113 262q0 152 109 230.5t317 78.5h335v162q0 134 -89.5 214.5t-252.5 80.5q-157 0 -248 -81t-91 -214h-21q0 143 95 229.5t265 86.5q175 0 269 -85.5t94 -230.5v-733h-21v170q-213 -195 -432 -195q-148 0 -238.5 74.5t-90.5 212.5zM133 262q0 -130 86 -198t223 -68 q211 0 432 203v352h-335q-197 0 -301.5 -73.5t-104.5 -215.5z" />
<glyph unicode="b" horiz-adv-x="1132" d="M184 0v1444h21v-613q197 218 418 218q168 0 262 -105t94 -276v-312q0 -171 -94 -276t-262 -105q-221 0 -418 218v-193h-21zM205 221q205 -225 418 -225q158 0 246.5 98.5t88.5 261.5v312q0 163 -88.5 261.5t-246.5 98.5q-213 0 -418 -225v-582z" />
<glyph unicode="c" horiz-adv-x="1060" d="M137 356v312q0 171 105.5 276t292.5 105q182 0 289.5 -95t107.5 -247v-9h-21v9q0 143 -101 232t-275 89q-176 0 -276.5 -99t-100.5 -261v-312q0 -162 100.5 -261t276.5 -99q174 0 275 90.5t101 235.5v10h21v-10q0 -155 -107 -251t-290 -96q-187 0 -292.5 105t-105.5 276z " />
<glyph unicode="d" horiz-adv-x="1132" d="M154 356v312q0 171 94 276t262 105q221 0 418 -218v613h20v-1444h-20v193q-197 -218 -418 -218q-168 0 -262 105t-94 276zM174 356q0 -163 89 -261.5t247 -98.5q212 0 418 225v582q-206 225 -418 225q-158 0 -247 -98.5t-89 -261.5v-312z" />
<glyph unicode="e" d="M137 356v312q0 171 105.5 276t292.5 105q191 0 294 -103.5t103 -277.5v-156h-774v-156q0 -162 100.5 -261t276.5 -99q163 0 257.5 81.5t108.5 221.5h21q-12 -151 -112.5 -237.5t-274.5 -86.5q-187 0 -292.5 105t-105.5 276zM158 532h753v136q0 164 -98 262t-278 98 q-176 0 -276.5 -99t-100.5 -261v-136z" />
<glyph unicode="f" horiz-adv-x="632" d="M51 1004v20h193v150q0 135 67 204.5t195 69.5l65 -4v-21q-46 4 -65 4q-116 0 -179 -64.5t-63 -188.5v-150h307v-20h-307v-1004h-20v1004h-193z" />
<glyph unicode="g" horiz-adv-x="1132" d="M154 451v217q0 171 94 276t262 105q221 0 418 -218v193h20v-977q0 -195 -101 -297t-284 -102q-172 0 -276.5 86t-110.5 237h21q6 -137 106 -220t260 -83q172 0 268.5 97.5t96.5 281.5v240q-196 -217 -418 -217q-168 0 -262 105t-94 276zM174 451q0 -163 89 -262t247 -99 q212 0 418 225v488q-206 225 -418 225q-158 0 -247 -98.5t-89 -261.5v-217z" />
<glyph unicode="h" horiz-adv-x="1144" d="M184 0v1444h21v-613q194 218 418 218q156 0 252 -99t96 -278v-672h-21v664q0 175 -90 269.5t-237 94.5q-228 0 -418 -227v-801h-21z" />
<glyph unicode="i" horiz-adv-x="389" d="M184 0v1024h21v-1024h-21zM184 1219v225h21v-225h-21z" />
<glyph unicode="j" horiz-adv-x="389" d="M-86 -328q36 -4 57 -4q101 0 157 57.5t56 165.5v1133h21v-1133q0 -118 -60.5 -180.5t-173.5 -62.5l-57 4v20zM184 1219v225h21v-225h-21z" />
<glyph unicode="k" horiz-adv-x="1005" d="M184 0v1444h21v-912h270l389 492h19v-10l-387 -490l407 -514v-10h-18l-404 512h-276v-512h-21z" />
<glyph unicode="l" horiz-adv-x="389" d="M184 0v1444h21v-1444h-21z" />
<glyph unicode="m" horiz-adv-x="1816" d="M184 0v1024h21v-193q185 218 391 218q113 0 196 -62t113 -176q194 238 410 238q154 0 240.5 -97.5t86.5 -279.5v-672h-20v664q0 179 -81.5 271.5t-225.5 92.5q-211 0 -404 -242q13 -57 13 -114v-672h-21v664q0 175 -84 269.5t-223 94.5q-207 0 -391 -227v-801h-21z" />
<glyph unicode="n" horiz-adv-x="1144" d="M184 0v1024h21v-193q194 218 418 218q156 0 252 -99t96 -278v-672h-21v664q0 175 -90 269.5t-237 94.5q-228 0 -418 -227v-801h-21z" />
<glyph unicode="o" d="M137 356v312q0 171 105.5 276t292.5 105q191 0 294 -103.5t103 -277.5v-312q0 -174 -103 -277.5t-294 -103.5q-187 0 -292.5 105t-105.5 276zM158 356q0 -162 100.5 -261t276.5 -99q180 0 278 98t98 262v312q0 164 -98 262t-278 98q-176 0 -276.5 -99t-100.5 -261v-312z " />
<glyph unicode="p" horiz-adv-x="1132" d="M184 -328v1352h21v-193q197 218 418 218q168 0 262 -105t94 -276v-312q0 -171 -94 -276t-262 -105q-221 0 -418 218v-521h-21zM205 221q205 -225 418 -225q158 0 246.5 98.5t88.5 261.5v312q0 163 -88.5 261.5t-246.5 98.5q-213 0 -418 -225v-582z" />
<glyph unicode="q" horiz-adv-x="1132" d="M154 356v312q0 171 94 276t262 105q221 0 418 -218v193h20v-1352h-20v521q-197 -218 -418 -218q-168 0 -262 105t-94 276zM174 356q0 -163 89 -261.5t247 -98.5q212 0 418 225v582q-206 225 -418 225q-158 0 -247 -98.5t-89 -261.5v-312z" />
<glyph unicode="r" horiz-adv-x="741" d="M184 0v1024h21v-193q201 213 444 213h10v-20h-10q-244 0 -444 -221v-803h-21z" />
<glyph unicode="s" horiz-adv-x="1071" d="M123 334h20q0 -120 64 -199q115 -139 344 -139q165 0 260.5 71t95.5 185q0 96 -60.5 147t-213.5 90l-209 56q-142 37 -198 91.5t-56 156.5q0 113 97.5 184.5t264.5 71.5q178 0 283 -90t105 -259h-21q0 160 -98.5 244t-268.5 84q-159 0 -250.5 -64.5t-91.5 -170.5 q0 -92 52.5 -142.5t183.5 -85.5l209 -55q165 -44 229 -98t64 -160q0 -126 -99 -201.5t-278 -75.5h-15q-74 0 -142 18q-74 20 -135 62t-98 114t-38 165z" />
<glyph unicode="t" horiz-adv-x="694" d="M61 1004v20h193v213h20v-213h308v-20h-308v-754q0 -109 62 -169.5t172 -60.5h74v-20h-72q-124 0 -190 71.5t-66 178.5v754h-193z" />
<glyph unicode="u" horiz-adv-x="1144" d="M174 352v672h21v-664q0 -175 90 -269.5t237 -94.5q228 0 418 227v801h21v-1024h-21v193q-194 -218 -418 -218q-156 0 -252 99t-96 278z" />
<glyph unicode="v" horiz-adv-x="1003" d="M61 1014v10h19l422 -1001l422 1001h18v-10l-428 -1014h-25z" />
<glyph unicode="w" horiz-adv-x="1404" d="M113 1014v10h18l264 -1001l293 786h29l293 -786l264 1001h18v-10l-268 -1014h-27l-295 788l-294 -788h-27z" />
<glyph unicode="x" horiz-adv-x="1024" d="M102 0v10l398 502l-396 502v10h19l389 -494l389 494h19v-10l-396 -502l398 -502v-10h-19l-391 496l-391 -496h-19z" />
<glyph unicode="y" horiz-adv-x="1003" d="M61 1014v10h19l422 -1001l422 1001h18v-10l-565 -1342h-19v11l134 317z" />
<glyph unicode="z" horiz-adv-x="1026" d="M123 0v20l741 984h-704v20h731v-20l-741 -984h743v-20h-770z" />
<glyph unicode="{" horiz-adv-x="614" d="M82 596v20h59q133 0 133 162v426q0 148 90.5 230t249.5 82v-21q-149 0 -234 -76.5t-85 -216.5v-424q0 -151 -98 -172q98 -21 98 -172v-448q0 -140 85 -216.5t234 -76.5v-21q-159 0 -249.5 82t-90.5 230v450q0 162 -133 162h-59z" />
<glyph unicode="|" horiz-adv-x="430" d="M205 -205v1721h20v-1721h-20z" />
<glyph unicode="}" horiz-adv-x="614" d="M0 -307q149 0 234 76.5t85 216.5v448q0 151 99 172q-99 21 -99 172v424q0 140 -85 216.5t-234 76.5v21q159 0 249.5 -82t90.5 -230v-426q0 -162 133 -162h59v-20h-59q-133 0 -133 -162v-450q0 -148 -90.5 -230t-249.5 -82v21z" />
<glyph unicode="~" horiz-adv-x="923" d="M102 578q103 157 203 157q56 0 141 -61l46 -33q73 -55 129 -55q90 0 184 149l16 -12q-96 -158 -203 -158q-55 0 -141 62l-45 32q-77 56 -129 56q-89 0 -184 -150z" />
<glyph unicode="&#xa1;" horiz-adv-x="348" d="M164 -328v901h20v-901h-20zM164 772v252h20v-252h-20z" />
<glyph unicode="&#xa2;" horiz-adv-x="1060" d="M137 549v311q0 169 101 273t284 108v193h21v-193q178 -1 283.5 -96.5t105.5 -245.5v-8h-21v8q0 142 -99.5 231.5t-268.5 90.5v-1033q169 1 268.5 92t99.5 234v10h21v-10q0 -152 -105.5 -248.5t-283.5 -97.5v-168h-21v168q-182 1 -283.5 106t-101.5 275zM158 549 q0 -162 97 -261t267 -100v1033q-170 -4 -267 -102.5t-97 -258.5v-311z" />
<glyph unicode="&#xa3;" horiz-adv-x="1169" d="M102 0v20h170v693h-170v20h170v350q0 171 105.5 276t292.5 105q182 0 289.5 -95t107.5 -247v-92h-20v92q0 143 -101.5 232.5t-275.5 89.5q-176 0 -276.5 -98.5t-100.5 -262.5v-350h448v-20h-448v-693h774v-20h-965z" />
<glyph unicode="&#xa5;" horiz-adv-x="1220" d="M41 1423v11h18l551 -842l551 842h19v-11l-547 -833h438v-21h-450v-288h450v-21h-450v-260h-21v260h-450v21h450v288h-450v21h436z" />
<glyph unicode="&#xa7;" horiz-adv-x="1120" d="M125 57h20q0 -188 122.5 -288.5t330.5 -100.5q170 0 271.5 83.5t101.5 211.5q0 78 -52 133.5t-163 98.5l-219 84q-217 85 -297 145q-84 66 -84 190q0 161 123 314q-113 61 -113 205q0 138 108 226.5t289 88.5q185 0 305 -102q123 -102 123 -297h-20q0 187 -117 282 q-116 96 -291 96q-170 0 -273.5 -83.5t-103.5 -210.5q0 -89 43.5 -138t135.5 -84l256 -102q115 -46 161 -70q59 -25 113 -63q58 -37 81 -81t23 -108q0 -135 -155 -309q74 -41 110.5 -90.5t36.5 -124.5q0 -138 -106.5 -226.5t-286.5 -88.5q-211 0 -342 104t-131 305zM176 612 q0 -149 184 -237q43 -22 179 -74l286 -111q154 165 154 297q0 105 -98 177q-51 33 -105 57q-39 19 -55 24l-64 27l-61 25l-299 121q-121 -151 -121 -306z" />
<glyph unicode="&#xa8;" horiz-adv-x="528" d="M82 1219v225h20v-225h-20zM426 1219v225h20v-225h-20z" />
<glyph unicode="&#xa9;" horiz-adv-x="1802" d="M164 717q0 314 213 530q211 217 524 217t524 -217q213 -216 213 -530t-213 -533q-212 -215 -524 -215t-524 215q-213 219 -213 533zM184 717q0 -305 207 -518q206 -209 510 -209t510 209q207 213 207 518q0 306 -207 516q-205 211 -510 211t-510 -211 q-207 -210 -207 -516zM545 621v194q0 151 92 242.5t256 91.5q162 0 255 -83.5t93 -219.5v-10h-20v10q0 125 -88.5 203.5t-239.5 78.5q-153 0 -240.5 -85.5t-87.5 -227.5v-194q0 -143 87.5 -228.5t240.5 -85.5q151 0 239.5 79t88.5 204v10h20v-10q0 -136 -93 -219.5 t-255 -83.5q-164 0 -256 91.5t-92 242.5z" />
<glyph unicode="&#xaa;" horiz-adv-x="874" d="M123 915q0 207 321 207h246v109q0 87 -66.5 139.5t-185.5 52.5q-115 0 -182.5 -53t-67.5 -139h-20q0 96 71 154.5t199 58.5q130 0 201.5 -58.5t71.5 -154.5v-498h-21v119q-166 -129 -330 -129q-110 0 -173.5 48.5t-63.5 143.5zM143 915q0 -85 60.5 -128.5t161.5 -43.5 q151 0 325 131v228h-246q-143 0 -222 -48.5t-79 -138.5z" />
<glyph unicode="&#xab;" horiz-adv-x="1079" d="M123 541l397 415h21v-10l-387 -405l385 -404v-10h-21zM524 541l398 415h20v-10l-387 -405l385 -404v-10h-20z" />
<glyph unicode="&#xac;" horiz-adv-x="1019" d="M102 854v20h816v-448h-21v428h-795z" />
<glyph unicode="&#xad;" horiz-adv-x="880" d="M143 631v20h594v-20h-594z" />
<glyph unicode="&#xae;" horiz-adv-x="806" d="M61 1112q0 148 99 250q102 102 243 102q143 0 242 -102q100 -100 100 -250q0 -152 -100 -252q-97 -100 -242 -100q-143 0 -243 100q-99 102 -99 252zM82 1112q0 -143 92 -238q94 -94 229 -94q137 0 228 94q94 94 94 238q0 142 -94 236q-93 96 -228 96q-133 0 -229 -96 q-92 -95 -92 -236zM266 934v360h174q51 0 82 -28.5t31 -77.5q0 -45 -26.5 -74t-73.5 -33l100 -135v-12h-18l-111 147h-137v-147h-21zM287 1102h149q60 -6 85 40t0 92t-85 40h-149v-172z" />
<glyph unicode="&#xaf;" horiz-adv-x="927" d="M225 1321v20h477v-20h-477z" />
<glyph unicode="&#xb0;" horiz-adv-x="776" d="M102 1063v127q0 124 75.5 199t209.5 75q137 0 212 -74t75 -200v-127q0 -126 -75 -200.5t-212 -74.5q-134 0 -209.5 75.5t-75.5 199.5zM123 1061q0 -114 70.5 -183t193.5 -69q126 0 196 69.5t70 182.5v129q0 115 -70 184.5t-196 69.5q-123 0 -193.5 -70t-70.5 -184v-129z " />
<glyph unicode="&#xb1;" horiz-adv-x="1019" d="M102 78v20h816v-20h-816zM102 651v21h398v397h20v-397h398v-21h-398v-397h-20v397h-398z" />
<glyph unicode="&#xb4;" horiz-adv-x="565" d="M143 1208l260 287h19v-10l-252 -277h-27z" />
<glyph unicode="&#xb5;" horiz-adv-x="1155" d="M184 -328v1352h21v-682q0 -165 90.5 -255.5t236.5 -90.5q228 0 418 227v801h21v-1024h-21v193q-194 -218 -418 -218q-119 0 -205.5 60.5t-121.5 171.5v-535h-21z" />
<glyph unicode="&#xb6;" horiz-adv-x="1116" d="M102 1085v17q0 159 95 245.5t264 86.5h450v-1612h-20v1591h-410v-1591h-20v932q-168 0 -263.5 87t-95.5 244z" />
<glyph unicode="&#xb7;" horiz-adv-x="348" d="M164 535v251h20v-251h-20z" />
<glyph unicode="&#xb8;" horiz-adv-x="569" d="M156 -317l250 317h26l-258 -328h-18v11z" />
<glyph unicode="&#xba;" horiz-adv-x="813" d="M102 1016v135q0 132 80.5 212.5t223.5 80.5q145 0 225 -80t80 -213v-135q0 -133 -80 -213t-225 -80q-143 0 -223.5 80.5t-80.5 212.5zM123 1014q0 -123 75.5 -197t207.5 -74q136 0 210 75t74 196v137q0 126 -73 199t-211 73q-132 0 -207.5 -74t-75.5 -198v-137z" />
<glyph unicode="&#xbb;" horiz-adv-x="1079" d="M137 946v10h21l397 -415l-395 -414h-21v10l385 404zM539 946v10h20l397 -415l-395 -414h-20v10l385 404z" />
<glyph unicode="&#xbf;" horiz-adv-x="1017" d="M102 -10q0 115 70 207q24 34 70 67q9 9 39 29q25 20 34 24l37 23l29 16l119 72v145h20v-155l-125 -76l-80 -51q-34 -22 -71 -51q-42 -34 -66 -68q-55 -84 -55 -182q0 -144 100.5 -233t284.5 -89q182 0 294.5 110.5t112.5 303.5h21q0 -201 -118.5 -317.5t-311.5 -116.5 q-190 0 -297 95t-107 247zM500 772v252h20v-252h-20z" />
<glyph unicode="&#xc0;" horiz-adv-x="1331" d="M61 0v10l592 1424h25l592 -1424v-10h-19l-186 446h-801l-184 -446h-19zM272 467h785l-391 944zM393 1858v12h21l278 -309h-28z" />
<glyph unicode="&#xc1;" horiz-adv-x="1331" d="M61 0v10l592 1424h25l592 -1424v-10h-19l-186 446h-801l-184 -446h-19zM272 467h785l-391 944zM664 1561l278 309h21v-12l-271 -297h-28z" />
<glyph unicode="&#xc2;" horiz-adv-x="1331" d="M61 0v10l592 1424h25l592 -1424v-10h-19l-186 446h-801l-184 -446h-19zM272 467h785l-391 944zM383 1561v12l270 297h27l270 -297v-12h-20l-264 290l-263 -290h-20z" />
<glyph unicode="&#xc3;" horiz-adv-x="1331" d="M61 0v10l592 1424h25l592 -1424v-10h-19l-186 446h-801l-184 -446h-19zM272 467h785l-391 944zM297 1638q75 97 117 129.5t92 32.5q62 0 143 -63l47 -33q77 -57 133 -57q42 0 78 28q33 29 111 125l16 -12q-75 -97 -116.5 -129.5t-90.5 -32.5q-63 0 -145 64l-47 32 q-76 58 -131 58q-43 0 -82 -31q-34 -27 -109 -123z" />
<glyph unicode="&#xc4;" horiz-adv-x="1331" d="M61 0v10l592 1424h25l592 -1424v-10h-19l-186 446h-801l-184 -446h-19zM272 467h785l-391 944zM471 1573v242h23v-242h-23zM840 1573v242h22v-242h-22z" />
<glyph unicode="&#xc5;" horiz-adv-x="1331" d="M61 0v10l592 1424h25l592 -1424v-10h-19l-186 446h-801l-184 -446h-19zM272 467h785l-391 944zM451 1735q0 82 63.5 140t151.5 58t151.5 -58t63.5 -140q0 -84 -63.5 -142.5t-151.5 -58.5t-151.5 58.5t-63.5 142.5zM472.5 1735.5q-0.5 -73.5 55.5 -127.5q40 -40 99.5 -48 t111 11t87.5 63.5t32 100.5q0 74 -56.5 126t-135.5 52q-77 0 -136 -53q-57 -51 -57.5 -124.5z" />
<glyph unicode="&#xc6;" horiz-adv-x="1892" d="M41 0v10l893 1424h835v-21h-815v-680h717v-20h-717v-693h815v-20h-835v446h-594l-281 -446h-18zM352 467h582v924z" />
<glyph unicode="&#xc7;" horiz-adv-x="1343" d="M164 485v463q0 242 143 379t387 137q216 0 359 -125q147 -123 147 -340v-20h-20v20q0 205 -142 326q-137 119 -344 119q-236 0 -373 -132t-137 -364v-463q0 -232 137 -363.5t373 -131.5q207 0 344 119q142 121 142 325v21h20v-21q0 -214 -145 -338t-353 -127l-233 -297 h-20v13l225 284q-236 6 -373 143t-137 373z" />
<glyph unicode="&#xc8;" horiz-adv-x="1163" d="M205 0v1434h835v-21h-815v-680h717v-20h-717v-693h815v-20h-835zM457 1858v12h20l279 -309h-29z" />
<glyph unicode="&#xc9;" horiz-adv-x="1163" d="M205 0v1434h835v-21h-815v-680h717v-20h-717v-693h815v-20h-835zM561 1561l279 309h20v-12l-270 -297h-29z" />
<glyph unicode="&#xca;" horiz-adv-x="1163" d="M205 0v1434h835v-21h-815v-680h717v-20h-717v-693h815v-20h-835zM350 1561v12l271 297h26l271 -297v-12h-21l-264 290l-262 -290h-21z" />
<glyph unicode="&#xcb;" horiz-adv-x="1163" d="M205 0v1434h835v-21h-815v-680h717v-20h-717v-693h815v-20h-835zM418 1573v242h22v-242h-22zM786 1573v242h23v-242h-23z" />
<glyph unicode="&#xcc;" horiz-adv-x="430" d="M-63 1858v12h20l279 -309h-29zM205 0v1434h20v-1434h-20z" />
<glyph unicode="&#xcd;" horiz-adv-x="430" d="M201 1561l278 309h21v-12l-271 -297h-28zM205 0v1434h20v-1434h-20z" />
<glyph unicode="&#xce;" horiz-adv-x="430" d="M-68 1561v12l271 297h26l271 -297v-12h-21l-264 290l-262 -290h-21zM205 0v1434h20v-1434h-20z" />
<glyph unicode="&#xcf;" horiz-adv-x="430" d="M18 1573v242h23v-242h-23zM205 0v1434h20v-1434h-20zM389 1573v242h23v-242h-23z" />
<glyph unicode="&#xd0;" horiz-adv-x="1402" d="M41 709v20h205v705h473q241 0 380.5 -135t139.5 -373v-418q0 -238 -139.5 -373t-380.5 -135h-473v709h-205zM266 20h453q232 0 366 130t134 358v418q0 228 -133.5 357.5t-366.5 129.5h-453v-684h510v-20h-510v-689z" />
<glyph unicode="&#xd1;" horiz-adv-x="1392" d="M205 0v1434h20l942 -1397v1397h21v-1434h-19l-944 1395v-1395h-20zM338 1638q75 97 117 129.5t92 32.5q62 0 143 -63l47 -33q77 -57 133 -57q42 0 78 28q33 29 111 125l16 -12q-75 -97 -116.5 -129.5t-90.5 -32.5q-63 0 -145 64l-47 32q-76 58 -131 58q-43 0 -82 -31 q-34 -27 -109 -123z" />
<glyph unicode="&#xd2;" horiz-adv-x="1368" d="M164 477v479q0 238 139.5 373t380.5 135t380.5 -135t139.5 -373v-479q0 -238 -139.5 -373t-380.5 -135t-380.5 135t-139.5 373zM184 477q0 -228 133.5 -357.5t366.5 -129.5t366.5 129.5t133.5 357.5v479q0 228 -134 358t-366 130t-366 -130t-134 -358v-479zM471 1858v12 h21l278 -309h-29z" />
<glyph unicode="&#xd3;" horiz-adv-x="1368" d="M164 477v479q0 238 139.5 373t380.5 135t380.5 -135t139.5 -373v-479q0 -238 -139.5 -373t-380.5 -135t-380.5 135t-139.5 373zM184 477q0 -228 133.5 -357.5t366.5 -129.5t366.5 129.5t133.5 357.5v479q0 228 -134 358t-366 130t-366 -130t-134 -358v-479zM670 1561 l278 309h21v-12l-271 -297h-28z" />
<glyph unicode="&#xd4;" horiz-adv-x="1368" d="M164 477v479q0 238 139.5 373t380.5 135t380.5 -135t139.5 -373v-479q0 -238 -139.5 -373t-380.5 -135t-380.5 135t-139.5 373zM184 477q0 -228 133.5 -357.5t366.5 -129.5t366.5 129.5t133.5 357.5v479q0 228 -134 358t-366 130t-366 -130t-134 -358v-479zM428 1561v12 l270 297h27l270 -297v-12h-20l-264 290l-262 -290h-21z" />
<glyph unicode="&#xd5;" horiz-adv-x="1368" d="M164 477v479q0 238 139.5 373t380.5 135t380.5 -135t139.5 -373v-479q0 -238 -139.5 -373t-380.5 -135t-380.5 135t-139.5 373zM184 477q0 -228 133.5 -357.5t366.5 -129.5t366.5 129.5t133.5 357.5v479q0 228 -134 358t-366 130t-366 -130t-134 -358v-479zM322 1638 q75 97 117 129.5t91 32.5q63 0 144 -63l47 -33q77 -57 133 -57q42 0 78 28q30 26 110 125l17 -12q-75 -97 -116.5 -129.5t-90.5 -32.5q-63 0 -145 64l-48 32q-76 58 -131 58q-43 0 -82 -31q-32 -25 -108 -123z" />
<glyph unicode="&#xd6;" horiz-adv-x="1368" d="M164 477v479q0 238 139.5 373t380.5 135t380.5 -135t139.5 -373v-479q0 -238 -139.5 -373t-380.5 -135t-380.5 135t-139.5 373zM184 477q0 -228 133.5 -357.5t366.5 -129.5t366.5 129.5t133.5 357.5v479q0 228 -134 358t-366 130t-366 -130t-134 -358v-479zM492 1573v242 h22v-242h-22zM860 1573v242h23v-242h-23z" />
<glyph unicode="&#xd8;" horiz-adv-x="1368" d="M164 477v479q0 238 139.5 373t380.5 135q155 0 277 -61l100 235h18v-10l-100 -235q225 -132 225 -437v-479q0 -238 -139.5 -373t-380.5 -135q-154 0 -278 62l-99 -236h-18v10l98 236q-223 128 -223 436zM184 477q0 -292 211 -418l557 1323q-112 62 -268 62 q-232 0 -366 -130t-134 -358v-479zM414 49q115 -59 270 -59q233 0 366.5 129.5t133.5 357.5v479q0 292 -213 416z" />
<glyph unicode="&#xd9;" horiz-adv-x="1351" d="M184 485v949h21v-949q0 -232 126.5 -363.5t344.5 -131.5t344.5 131.5t126.5 363.5v949h20v-949q0 -240 -133 -379q-131 -137 -358 -137q-228 0 -359 137q-133 139 -133 379zM494 1858v12h20l279 -309h-29z" />
<glyph unicode="&#xda;" horiz-adv-x="1351" d="M184 485v949h21v-949q0 -232 126.5 -363.5t344.5 -131.5t344.5 131.5t126.5 363.5v949h20v-949q0 -240 -133 -379q-131 -137 -358 -137q-228 0 -359 137q-133 139 -133 379zM664 1561l278 309h21v-12l-271 -297h-28z" />
<glyph unicode="&#xdb;" horiz-adv-x="1351" d="M184 485v949h21v-949q0 -232 126.5 -363.5t344.5 -131.5t344.5 131.5t126.5 363.5v949h20v-949q0 -240 -133 -379q-131 -137 -358 -137q-228 0 -359 137q-133 139 -133 379zM393 1561v12l271 297h26l271 -297v-12h-21l-264 290l-262 -290h-21z" />
<glyph unicode="&#xdc;" horiz-adv-x="1351" d="M184 485v949h21v-949q0 -232 126.5 -363.5t344.5 -131.5t344.5 131.5t126.5 363.5v949h20v-949q0 -240 -133 -379q-131 -137 -358 -137q-228 0 -359 137q-133 139 -133 379zM481 1573v242h23v-242h-23zM850 1573v242h22v-242h-22z" />
<glyph unicode="&#xdd;" horiz-adv-x="1220" d="M41 1423v11h18l551 -842l551 842h19v-11l-559 -854v-569h-21v569zM580 1561l278 309h21v-12l-271 -297h-28z" />
<glyph unicode="&#xde;" horiz-adv-x="1245" d="M205 0v1434h20v-304h533q176 0 275.5 -109.5t99.5 -299.5t-99.5 -300t-275.5 -110h-533v-311h-20zM225 332h533q165 0 259.5 104t94.5 285t-94.5 285t-259.5 104h-533v-778z" />
<glyph unicode="&#xdf;" horiz-adv-x="1173" d="M184 0v963q0 232 109.5 358.5t310.5 126.5q179 0 279 -100q102 -102 102 -250q0 -127 -67 -206.5t-185 -103.5q132 -21 223 -122q95 -103 95 -256q0 -201 -113.5 -305.5t-325.5 -104.5l-153 14v21q79 -15 153 -15q204 0 311 98t107 292q0 163 -111.5 265.5t-295.5 102.5 h-138v21h138q168 0 255 78.5t87 220.5q0 136 -97 233q-96 96 -264 96q-191 0 -295 -121t-104 -343v-963h-21z" />
<glyph unicode="&#xe0;" d="M113 262q0 152 109 230.5t317 78.5h335v162q0 134 -89.5 214.5t-252.5 80.5q-157 0 -248 -81t-91 -214h-21q0 143 95 229.5t265 86.5q175 0 269 -85.5t94 -230.5v-733h-21v170q-213 -195 -432 -195q-148 0 -238.5 74.5t-90.5 212.5zM133 262q0 -130 86 -198t223 -68 q211 0 432 203v352h-335q-197 0 -301.5 -73.5t-104.5 -215.5zM399 1485v10h19l260 -287h-27z" />
<glyph unicode="&#xe1;" d="M113 262q0 152 109 230.5t317 78.5h335v162q0 134 -89.5 214.5t-252.5 80.5q-157 0 -248 -81t-91 -214h-21q0 143 95 229.5t265 86.5q175 0 269 -85.5t94 -230.5v-733h-21v170q-213 -195 -432 -195q-148 0 -238.5 74.5t-90.5 212.5zM133 262q0 -130 86 -198t223 -68 q211 0 432 203v352h-335q-197 0 -301.5 -73.5t-104.5 -215.5zM512 1208l260 287h19v-10l-252 -277h-27z" />
<glyph unicode="&#xe2;" d="M113 262q0 152 109 230.5t317 78.5h335v162q0 134 -89.5 214.5t-252.5 80.5q-157 0 -248 -81t-91 -214h-21q0 143 95 229.5t265 86.5q175 0 269 -85.5t94 -230.5v-733h-21v170q-213 -195 -432 -195q-148 0 -238.5 74.5t-90.5 212.5zM133 262q0 -130 86 -198t223 -68 q211 0 432 203v352h-335q-197 0 -301.5 -73.5t-104.5 -215.5zM307 1208v11l252 276h25l252 -276v-11h-19l-246 271l-245 -271h-19z" />
<glyph unicode="&#xe3;" d="M113 262q0 152 109 230.5t317 78.5h335v162q0 134 -89.5 214.5t-252.5 80.5q-157 0 -248 -81t-91 -214h-21q0 143 95 229.5t265 86.5q175 0 269 -85.5t94 -230.5v-733h-21v170q-213 -195 -432 -195q-148 0 -238.5 74.5t-90.5 212.5zM133 262q0 -130 86 -198t223 -68 q211 0 432 203v352h-335q-197 0 -301.5 -73.5t-104.5 -215.5zM203 1307q82 101 114 125q38 32 89 32q56 0 141 -61l45 -33q73 -55 129 -55q40 0 76 28q29 23 108 121l17 -12q-75 -95 -114.5 -126.5t-88.5 -31.5q-55 0 -141 62l-46 33q-76 55 -129 55q-40 0 -77 -29 q-26 -21 -107 -121z" />
<glyph unicode="&#xe4;" d="M113 262q0 152 109 230.5t317 78.5h335v162q0 134 -89.5 214.5t-252.5 80.5q-157 0 -248 -81t-91 -214h-21q0 143 95 229.5t265 86.5q175 0 269 -85.5t94 -230.5v-733h-21v170q-213 -195 -432 -195q-148 0 -238.5 74.5t-90.5 212.5zM133 262q0 -130 86 -198t223 -68 q211 0 432 203v352h-335q-197 0 -301.5 -73.5t-104.5 -215.5zM352 1219v225h21v-225h-21zM696 1219v225h21v-225h-21z" />
<glyph unicode="&#xe5;" d="M113 262q0 152 109 230.5t317 78.5h335v162q0 134 -89.5 214.5t-252.5 80.5q-157 0 -248 -81t-91 -214h-21q0 143 95 229.5t265 86.5q175 0 269 -85.5t94 -230.5v-733h-21v170q-213 -195 -432 -195q-148 0 -238.5 74.5t-90.5 212.5zM133 262q0 -130 86 -198t223 -68 q211 0 432 203v352h-335q-197 0 -301.5 -73.5t-104.5 -215.5zM343 1367.5q0 77.5 60 131.5q60 55 141.5 55t141.5 -55q60 -54 60 -131.5t-60 -132.5q-60 -54 -141.5 -54t-141.5 54q-60 55 -60 132.5zM364 1368q0 -70 54 -119q54 -47 127 -47t127 47q54 49 54 119t-54 117 q-54 49 -127 49t-127 -49q-54 -47 -54 -117z" />
<glyph unicode="&#xe6;" horiz-adv-x="1806" d="M113 254q0 147 109 223t317 76h335v180q0 134 -89.5 214.5t-252.5 80.5q-157 0 -248 -81t-91 -214h-21q0 143 95 229.5t265 86.5q155 0 247.5 -69t111.5 -189q33 121 131.5 189.5t249.5 68.5q191 0 294 -103.5t103 -277.5v-136h-774v-188q0 -161 100.5 -254.5 t276.5 -93.5q163 0 257.5 81.5t108.5 221.5h21q-12 -151 -112.5 -237.5t-274.5 -86.5q-163 0 -262 76t-125 201q-69 -123 -187 -200t-256 -77q-147 0 -238 73t-91 206zM133 254q0 -126 86 -192t223 -66q153 0 275 94q123 94 157 199v243h-335q-197 0 -301.5 -71t-104.5 -207 zM895 553h754v115q0 164 -98.5 262t-278.5 98q-176 0 -276.5 -99t-100.5 -261v-115z" />
<glyph unicode="&#xe7;" horiz-adv-x="1060" d="M137 356v312q0 171 105.5 276t292.5 105q182 0 289.5 -95t107.5 -247v-9h-21v9q0 143 -101 232t-275 89q-176 0 -276.5 -99t-100.5 -261v-312q0 -162 100.5 -261t276.5 -99q174 0 275 90.5t101 235.5v10h21v-10q0 -141 -93.5 -236.5t-252.5 -108.5l-240 -305h-18v11 l231 292h-24q-187 0 -292.5 105t-105.5 276z" />
<glyph unicode="&#xe8;" d="M137 356v312q0 171 105.5 276t292.5 105q191 0 294 -103.5t103 -277.5v-156h-774v-156q0 -162 100.5 -261t276.5 -99q163 0 257.5 81.5t108.5 221.5h21q-12 -151 -112.5 -237.5t-274.5 -86.5q-187 0 -292.5 105t-105.5 276zM158 532h753v136q0 164 -98 262t-278 98 q-176 0 -276.5 -99t-100.5 -261v-136zM322 1485v10h18l260 -287h-27z" />
<glyph unicode="&#xe9;" d="M137 356v312q0 171 105.5 276t292.5 105q191 0 294 -103.5t103 -277.5v-156h-774v-156q0 -162 100.5 -261t276.5 -99q163 0 257.5 81.5t108.5 221.5h21q-12 -151 -112.5 -237.5t-274.5 -86.5q-187 0 -292.5 105t-105.5 276zM158 532h753v136q0 164 -98 262t-278 98 q-176 0 -276.5 -99t-100.5 -261v-136zM455 1208l260 287h18v-10l-252 -277h-26z" />
<glyph unicode="&#xea;" d="M137 356v312q0 171 105.5 276t292.5 105q191 0 294 -103.5t103 -277.5v-156h-774v-156q0 -162 100.5 -261t276.5 -99q163 0 257.5 81.5t108.5 221.5h21q-12 -151 -112.5 -237.5t-274.5 -86.5q-187 0 -292.5 105t-105.5 276zM158 532h753v136q0 164 -98 262t-278 98 q-176 0 -276.5 -99t-100.5 -261v-136zM285 1208v11l252 276h24l252 -276v-11h-18l-246 271l-246 -271h-18z" />
<glyph unicode="&#xeb;" d="M137 356v312q0 171 105.5 276t292.5 105q191 0 294 -103.5t103 -277.5v-156h-774v-156q0 -162 100.5 -261t276.5 -99q163 0 257.5 81.5t108.5 221.5h21q-12 -151 -112.5 -237.5t-274.5 -86.5q-187 0 -292.5 105t-105.5 276zM158 532h753v136q0 164 -98 262t-278 98 q-176 0 -276.5 -99t-100.5 -261v-136zM352 1219v225h21v-225h-21zM696 1219v225h21v-225h-21z" />
<glyph unicode="&#xec;" horiz-adv-x="389" d="M-59 1481v10h18l260 -287h-26zM184 0v1024h21v-1024h-21z" />
<glyph unicode="&#xed;" horiz-adv-x="389" d="M170 1208l260 287h19v-10l-252 -277h-27zM184 0v1024h21v-1024h-21z" />
<glyph unicode="&#xee;" horiz-adv-x="389" d="M-70 1208v11l252 276h25l252 -276v-11h-19l-245 271l-246 -271h-19zM184 0v1024h21v-1024h-21z" />
<glyph unicode="&#xef;" horiz-adv-x="389" d="M12 1219v225h21v-225h-21zM184 0v1024h21v-1024h-21zM356 1219v225h21v-225h-21z" />
<glyph unicode="&#xf0;" horiz-adv-x="1122" d="M154 356v176q0 171 94 276t262 105q222 0 418 -217q-7 104 -59.5 204t-163.5 241h-398v20h381l-219 273v10h18l226 -283h235v-20h-219q65 -82 111 -148q43 -63 75.5 -150t32.5 -167v-320q0 -171 -105 -276t-292 -105q-191 0 -294 103.5t-103 277.5zM174 356 q0 -164 98.5 -262t278.5 -98q176 0 276.5 99t100.5 261v312q-206 225 -418 225q-158 0 -247 -99t-89 -262v-176z" />
<glyph unicode="&#xf1;" horiz-adv-x="1144" d="M184 0v1024h21v-193q194 218 418 218q156 0 252 -99t96 -278v-672h-21v664q0 175 -90 269.5t-237 94.5q-228 0 -418 -227v-801h-21zM219 1307q81 99 115 125q38 32 88 32q56 0 141 -61l45 -33q73 -55 129 -55q40 0 76 28q32 25 109 121l16 -12q-75 -95 -114.5 -126.5 t-88.5 -31.5q-55 0 -141 62l-45 33q-76 55 -129 55q-41 0 -78 -29q-24 -19 -106 -121z" />
<glyph unicode="&#xf2;" d="M137 356v312q0 171 105.5 276t292.5 105q191 0 294 -103.5t103 -277.5v-312q0 -174 -103 -277.5t-294 -103.5q-187 0 -292.5 105t-105.5 276zM158 356q0 -162 100.5 -261t276.5 -99q180 0 278 98t98 262v312q0 164 -98 262t-278 98q-176 0 -276.5 -99t-100.5 -261v-312z M309 1485v10h19l260 -287h-27z" />
<glyph unicode="&#xf3;" d="M137 356v312q0 171 105.5 276t292.5 105q191 0 294 -103.5t103 -277.5v-312q0 -174 -103 -277.5t-294 -103.5q-187 0 -292.5 105t-105.5 276zM158 356q0 -162 100.5 -261t276.5 -99q180 0 278 98t98 262v312q0 164 -98 262t-278 98q-176 0 -276.5 -99t-100.5 -261v-312z M504 1208l260 287h18v-10l-252 -277h-26z" />
<glyph unicode="&#xf4;" d="M137 356v312q0 171 105.5 276t292.5 105q191 0 294 -103.5t103 -277.5v-312q0 -174 -103 -277.5t-294 -103.5q-187 0 -292.5 105t-105.5 276zM158 356q0 -162 100.5 -261t276.5 -99q180 0 278 98t98 262v312q0 164 -98 262t-278 98q-176 0 -276.5 -99t-100.5 -261v-312z M270 1208v11l252 276h25l252 -276v-11h-19l-245 271l-246 -271h-19z" />
<glyph unicode="&#xf5;" d="M137 356v312q0 171 105.5 276t292.5 105q191 0 294 -103.5t103 -277.5v-312q0 -174 -103 -277.5t-294 -103.5q-187 0 -292.5 105t-105.5 276zM158 356q0 -162 100.5 -261t276.5 -99q180 0 278 98t98 262v312q0 164 -98 262t-278 98q-176 0 -276.5 -99t-100.5 -261v-312z M178 1307q81 99 115 125q38 32 88 32q56 0 141 -61l45 -33q73 -55 129 -55q40 0 76 28q32 25 109 121l16 -12q-75 -95 -114.5 -126.5t-88.5 -31.5q-55 0 -141 62l-45 33q-76 55 -129 55q-41 0 -78 -29q-24 -19 -106 -121z" />
<glyph unicode="&#xf6;" d="M137 356v312q0 171 105.5 276t292.5 105q191 0 294 -103.5t103 -277.5v-312q0 -174 -103 -277.5t-294 -103.5q-187 0 -292.5 105t-105.5 276zM158 356q0 -162 100.5 -261t276.5 -99q180 0 278 98t98 262v312q0 164 -98 262t-278 98q-176 0 -276.5 -99t-100.5 -261v-312z M348 1219v225h21v-225h-21zM692 1219v225h21v-225h-21z" />
<glyph unicode="&#xf7;" horiz-adv-x="1019" d="M102 631v20h816v-20h-816zM500 233v220h20v-220h-20zM500 829v220h20v-220h-20z" />
<glyph unicode="&#xf8;" d="M137 -248l146 293q-146 106 -146 311v312q0 171 105.5 276t292.5 105q124 0 219 -50l159 324h19v-10l-160 -324q160 -103 160 -321v-312q0 -174 -103 -277.5t-294 -103.5q-134 0 -236 60l-143 -293h-19v10zM158 356q0 -188 135 -290l450 913q-88 49 -208 49 q-176 0 -276.5 -99t-100.5 -261v-312zM309 53q89 -57 226 -57q180 0 278 98t98 262v312q0 207 -149 301z" />
<glyph unicode="&#xf9;" horiz-adv-x="1144" d="M174 352v672h21v-664q0 -175 90 -269.5t237 -94.5q228 0 418 227v801h21v-1024h-21v193q-194 -218 -418 -218q-156 0 -252 99t-96 278zM365 1485v10h18l260 -287h-27z" />
<glyph unicode="&#xfa;" horiz-adv-x="1144" d="M174 352v672h21v-664q0 -175 90 -269.5t237 -94.5q228 0 418 227v801h21v-1024h-21v193q-194 -218 -418 -218q-156 0 -252 99t-96 278zM510 1208l260 287h18v-10l-251 -277h-27z" />
<glyph unicode="&#xfb;" horiz-adv-x="1144" d="M174 352v672h21v-664q0 -175 90 -269.5t237 -94.5q228 0 418 227v801h21v-1024h-21v193q-194 -218 -418 -218q-156 0 -252 99t-96 278zM307 1208v11l252 276h25l252 -276v-11h-19l-246 271l-245 -271h-19z" />
<glyph unicode="&#xfc;" horiz-adv-x="1144" d="M174 352v672h21v-664q0 -175 90 -269.5t237 -94.5q228 0 418 227v801h21v-1024h-21v193q-194 -218 -418 -218q-156 0 -252 99t-96 278zM383 1219v225h20v-225h-20zM727 1219v225h21v-225h-21z" />
<glyph unicode="&#xfd;" horiz-adv-x="1003" d="M61 1014v10h19l422 -1001l422 1001h18v-10l-565 -1342h-19v11l134 317zM440 1208l260 287h19v-10l-252 -277h-27z" />
<glyph unicode="&#xfe;" horiz-adv-x="1132" d="M184 -328v1772h21v-613q197 218 418 218q168 0 262 -105t94 -276v-312q0 -171 -94 -276t-262 -105q-221 0 -418 218v-521h-21zM205 221q205 -225 418 -225q158 0 246.5 98.5t88.5 261.5v312q0 163 -88.5 261.5t-246.5 98.5q-213 0 -418 -225v-582z" />
<glyph unicode="&#xff;" horiz-adv-x="1003" d="M61 1014v10h19l422 -1001l422 1001h18v-10l-565 -1342h-19v11l134 317zM313 1219v225h21v-225h-21zM657 1219v225h21v-225h-21z" />
<glyph unicode="&#x131;" horiz-adv-x="389" d="M184 0v1024h21v-1024h-21z" />
<glyph unicode="&#x152;" horiz-adv-x="2142" d="M164 477v479q0 238 139.5 373t380.5 135q193 0 324.5 -90t175.5 -254v314h835v-21h-815v-680h717v-20h-717v-693h815v-20h-835v313q-44 -165 -175.5 -254.5t-324.5 -89.5q-241 0 -380.5 135t-139.5 373zM184 477q0 -228 133.5 -357.5t366.5 -129.5q225 0 363 129 q137 128 137 346v504q0 218 -137 346q-138 129 -363 129q-232 0 -366 -130t-134 -358v-479z" />
<glyph unicode="&#x153;" horiz-adv-x="1843" d="M137 356v312q0 171 105.5 276t292.5 105q159 0 259.5 -76t127.5 -207q27 131 127.5 207t259.5 76q191 0 294 -103.5t103 -277.5v-156h-774v-162q0 -159 102.5 -256.5t274.5 -97.5q163 0 257.5 81.5t108.5 221.5h21q-12 -151 -112.5 -237.5t-274.5 -86.5q-159 0 -259.5 76 t-127.5 207q-27 -132 -126.5 -207.5t-260.5 -75.5q-187 0 -292.5 105t-105.5 276zM158 356q0 -162 100.5 -261t276.5 -99q177 0 276.5 96.5t99.5 257.5v326q0 157 -100 254.5t-276 97.5t-276.5 -99t-100.5 -261v-312zM932 532h754v136q0 164 -98.5 262t-278.5 98 q-176 0 -276.5 -99t-100.5 -261v-136z" />
<glyph unicode="&#x178;" horiz-adv-x="1220" d="M41 1423v11h18l551 -842l551 842h19v-11l-559 -854v-569h-21v569zM416 1579v242h22v-242h-22zM784 1579v242h23v-242h-23z" />
<glyph unicode="&#x192;" horiz-adv-x="774" d="M-61 -328q46 -4 67 -4q117 0 185 65.5t75 188.5l84 1082h-190v20h192l13 150q21 274 282 274l66 -4v-21q-46 4 -68 4q-117 0 -185 -65t-75 -188l-12 -150h307v-20h-309l-84 -1082q-21 -274 -283 -274l-65 4v20z" />
<glyph unicode="&#x2c6;" horiz-adv-x="815" d="M143 1208v11l252 276h25l252 -276v-11h-19l-245 271l-246 -271h-19z" />
<glyph unicode="&#x2c7;" horiz-adv-x="815" d="M143 1485v10h19l246 -270l245 270h19v-10l-252 -277h-25z" />
<glyph unicode="&#x2d8;" horiz-adv-x="806" d="M106 1450v25h21v-23q0 -122 75 -192t201 -70t201.5 70t75.5 192v23h20v-25q0 -130 -81 -205.5t-216 -75.5q-136 0 -216.5 75.5t-80.5 205.5z" />
<glyph unicode="&#x2d9;" horiz-adv-x="307" d="M143 1219v225h21v-225h-21z" />
<glyph unicode="&#x2da;" horiz-adv-x="688" d="M143 1367.5q0 77.5 60 131.5q60 55 141 55t141 -55q60 -54 60 -131.5t-60 -132.5q-60 -54 -141 -54t-141 54q-60 55 -60 132.5zM163 1368q0 -70 54 -119q54 -47 127 -47t127 47q54 49 54 119t-54 117q-54 49 -127 49t-127 -49q-54 -47 -54 -117z" />
<glyph unicode="&#x2db;" horiz-adv-x="542" d="M123 -178q0 84 119 178h32q-131 -94 -131 -178q0 -129 176 -129h97v-21h-103q-88 0 -139 40.5t-51 109.5z" />
<glyph unicode="&#x2dc;" horiz-adv-x="1005" d="M143 1307q81 99 115 125q38 32 88 32q56 0 141 -61l45 -33q73 -55 130 -55q39 0 75 28q32 25 109 121l16 -12q-75 -95 -114.5 -126.5t-88.5 -31.5q-55 0 -141 62l-45 33q-76 55 -129 55q-41 0 -78 -29q-24 -19 -106 -121z" />
<glyph unicode="&#x2dd;" horiz-adv-x="905" d="M143 1208l260 287h19v-10l-252 -277h-27zM483 1208l260 287h19v-10l-252 -277h-27z" />
<glyph unicode="&#x3a9;" horiz-adv-x="1449" d="M174 0v20h358q-156 48 -241.5 172.5t-85.5 309.5v454q0 238 139.5 373t380.5 135t380.5 -135t139.5 -373v-454q0 -184 -86 -309t-241 -173h358v-20h-451v20q187 26 293.5 153.5t106.5 328.5v456q0 228 -134 358t-366 130t-366 -130t-134 -358v-456q0 -201 106.5 -328.5 t293.5 -153.5v-20h-451z" />
<glyph unicode="&#x3c0;" horiz-adv-x="1277" d="M82 1004v20h1114v-20h-217v-1004h-21v1004h-639v-1004h-20v1004h-217z" />
<glyph unicode="&#x401;" horiz-adv-x="1163" d="M205 0v1434h835v-21h-815v-680h717v-20h-717v-693h815v-20h-835zM418 1573v242h22v-242h-22zM786 1573v242h23v-242h-23z" />
<glyph unicode="&#x402;" horiz-adv-x="1447" d="M20 1413v21h949v-21h-551v-688q229 80 440 80q221 0 349 -108.5t128 -293.5q0 -188 -101.5 -295.5t-285.5 -107.5h-108v20h108q176 0 271.5 102t95.5 281q0 176 -127 279q-126 102 -330 102q-213 0 -440 -82v-702h-21v1413h-377z" />
<glyph unicode="&#x403;" horiz-adv-x="1142" d="M205 0v1434h835v-21h-815v-1413h-20zM553 1561l278 309h21v-12l-270 -297h-29z" />
<glyph unicode="&#x404;" horiz-adv-x="1343" d="M164 485v463q0 242 143 379t387 137q216 0 359 -125q147 -123 147 -340v-20h-20v20q0 205 -142 326q-137 119 -344 119q-236 0 -373 -132t-137 -364v-219h709v-20h-709v-224q0 -232 137 -363.5t373 -131.5q207 0 344 119q142 121 142 325v21h20v-21q0 -216 -147 -342 q-144 -123 -359 -123q-244 0 -387 137t-143 379z" />
<glyph unicode="&#x405;" horiz-adv-x="1251" d="M113 465h20q0 -235 154 -356q155 -119 366 -119q205 0 319.5 93.5t114.5 244.5q0 121 -74.5 198.5t-244.5 141.5l-258 98q-196 72 -272 145q-72 75 -72 209q0 155 119.5 249.5t324.5 94.5q216 0 355 -121q137 -119 137 -362h-21q0 236 -135 350q-131 113 -336 113 q-194 0 -309 -90t-115 -234q0 -121 64 -188q63 -66 217 -125l254 -96q206 -78 295 -158q92 -80 92 -225q0 -162 -119.5 -260.5t-335.5 -98.5q-82 0 -158 17t-146 55.5t-122 95t-83 141t-31 187.5z" />
<glyph unicode="&#x406;" horiz-adv-x="430" d="M205 0v1434h20v-1434h-20z" />
<glyph unicode="&#x407;" horiz-adv-x="430" d="M20 1573v242h23v-242h-23zM205 0v1434h20v-1434h-20zM389 1573v242h23v-242h-23z" />
<glyph unicode="&#x408;" horiz-adv-x="1136" d="M61 403v52h21v-52q0 -194 114 -303.5t310 -109.5q198 0 312 109.5t114 303.5v1031h20v-1031q0 -202 -120.5 -318t-325.5 -116t-325 115.5t-120 318.5z" />
<glyph unicode="&#x409;" horiz-adv-x="2209" d="M59 0v20q120 0 185 56q137 115 137 657v701h809v-615h532q176 0 275.5 -109.5t99.5 -299.5t-99.5 -300t-275.5 -110h-553v1413h-768v-680q0 -304 -39 -461q-36 -156 -104 -214t-199 -58zM1190 20h532q165 0 260 104.5t95 285.5q0 180 -95 284.5t-260 104.5h-532v-779z " />
<glyph unicode="&#x40a;" horiz-adv-x="2207" d="M225 0v1434h21v-615h921v615h21v-615h532q176 0 275.5 -109.5t99.5 -299.5t-99.5 -300t-275.5 -110h-553v799h-921v-799h-21zM1188 20h532q165 0 260 104.5t95 285.5q0 180 -95 284.5t-260 104.5h-532v-779z" />
<glyph unicode="&#x40b;" horiz-adv-x="1480" d="M20 1413v21h949v-21h-551v-688q192 80 424 80q495 0 495 -428v-377h-20v377q0 407 -475 407q-227 0 -424 -84v-700h-21v1413h-377z" />
<glyph unicode="&#x40c;" horiz-adv-x="1181" d="M205 0v1434h20v-705h340l514 705h19v-11l-514 -704l536 -709v-10h-18l-535 709h-342v-709h-20zM565 1561l279 309h20v-12l-270 -297h-29z" />
<glyph unicode="&#x40e;" horiz-adv-x="1120" d="M41 1423v11h18l537 -1057l465 1057h18v-11l-628 -1423h-19v10l154 344zM268 1800v19h21v-17q0 -122 75 -192t201 -70t201.5 70t75.5 192v17h20v-19q0 -129 -81 -204.5t-216 -75.5q-136 0 -216.5 75t-80.5 205z" />
<glyph unicode="&#x40f;" horiz-adv-x="1372" d="M205 0v1434h20v-1414h922v1414h20v-1434h-471v-287h-20v287h-471z" />
<glyph unicode="&#x410;" horiz-adv-x="1331" d="M61 0v10l592 1424h25l592 -1424v-10h-19l-186 446h-801l-184 -446h-19zM272 467h785l-391 944z" />
<glyph unicode="&#x411;" horiz-adv-x="1296" d="M205 0v1434h891v-21h-871v-594h574q176 0 275.5 -109.5t99.5 -299.5t-99.5 -300t-275.5 -110h-594zM225 20h574q165 0 259.5 104.5t94.5 285.5t-94.5 285t-259.5 104h-574v-779z" />
<glyph unicode="&#x412;" horiz-adv-x="1306" d="M205 0v1434h594q158 0 246 -93t88 -258q0 -137 -61.5 -223t-164.5 -112q126 -19 201.5 -115.5t75.5 -257.5q0 -172 -91 -273.5t-249 -101.5h-639zM225 20h613q152 0 238.5 96t86.5 261q0 166 -86 261t-239 95h-613v-713zM225 754h586q141 0 221 88t80 241 q0 155 -82.5 242.5t-230.5 87.5h-574v-659z" />
<glyph unicode="&#x413;" horiz-adv-x="1142" d="M205 0v1434h835v-21h-815v-1413h-20z" />
<glyph unicode="&#x414;" horiz-adv-x="1456" d="M72 20h100q74 96 119 181q50 96 86.5 272.5t36.5 392.5v568h753v-1414h197v-327h-21v307h-1251v-307h-20v327zM201 20h946v1393h-713v-547q0 -336 -61 -516q-60 -185 -172 -330z" />
<glyph unicode="&#x415;" horiz-adv-x="1163" d="M205 0v1434h835v-21h-815v-680h717v-20h-717v-693h815v-20h-835z" />
<glyph unicode="&#x416;" horiz-adv-x="1691" d="M82 0v10l436 709l-412 704v11h19l412 -705h299v705h20v-705h299l412 705h18v-11l-411 -704l436 -709v-10h-19l-434 709h-301v-709h-20v709h-301l-435 -709h-18z" />
<glyph unicode="&#x417;" horiz-adv-x="1212" d="M123 434h20q3 -207 133 -325q131 -119 345 -119q210 0 329 108t119 295q0 159 -107 254.5t-286 95.5h-223v21h223q163 0 255.5 82.5t92.5 238.5t-111 258q-109 103 -305 103q-202 0 -321.5 -119t-120.5 -328h-21q1 218 126 341.5t337 123.5q206 0 320 -108 q116 -107 116 -271q0 -142 -74.5 -227t-201.5 -104q143 -19 232.5 -115.5t89.5 -245.5q0 -194 -125 -309t-344 -115q-221 0 -359 123q-136 124 -139 342z" />
<glyph unicode="&#x418;" horiz-adv-x="1392" d="M205 0v1434h20v-1395l942 1395h21v-1434h-21v1395l-942 -1395h-20z" />
<glyph unicode="&#x419;" horiz-adv-x="1392" d="M205 0v1434h20v-1395l942 1395h21v-1434h-21v1395l-942 -1395h-20zM399 1800v19h21v-17q0 -122 75 -192t201 -70t201.5 70t75.5 192v17h20v-19q0 -129 -81 -204.5t-216 -75.5q-136 0 -216.5 75t-80.5 205z" />
<glyph unicode="&#x41a;" horiz-adv-x="1181" d="M205 0v1434h20v-705h340l514 705h19v-11l-514 -704l536 -709v-10h-18l-535 709h-342v-709h-20z" />
<glyph unicode="&#x41b;" horiz-adv-x="1394" d="M59 0v20q120 0 185 56q137 115 137 657v701h809v-1434h-21v1413h-768v-680q0 -304 -39 -461q-36 -156 -104 -214t-199 -58z" />
<glyph unicode="&#x41c;" horiz-adv-x="1613" d="M205 0v1434h20l582 -861l582 861h20v-1434h-20v1395l-574 -848h-16l-574 848v-1395h-20z" />
<glyph unicode="&#x41d;" horiz-adv-x="1392" d="M205 0v1434h20v-705h942v705h21v-1434h-21v709h-942v-709h-20z" />
<glyph unicode="&#x41e;" horiz-adv-x="1368" d="M164 477v479q0 238 139.5 373t380.5 135t380.5 -135t139.5 -373v-479q0 -238 -139.5 -373t-380.5 -135t-380.5 135t-139.5 373zM184 477q0 -228 133.5 -357.5t366.5 -129.5t366.5 129.5t133.5 357.5v479q0 228 -134 358t-366 130t-366 -130t-134 -358v-479z" />
<glyph unicode="&#x41f;" horiz-adv-x="1380" d="M205 0v1434h971v-1434h-21v1413h-930v-1413h-20z" />
<glyph unicode="&#x420;" horiz-adv-x="1245" d="M205 0v1434h553q176 0 275.5 -110t99.5 -300t-99.5 -300t-275.5 -110h-533v-614h-20zM225 635h533q165 0 259.5 104t94.5 285t-94.5 285t-259.5 104h-533v-778z" />
<glyph unicode="&#x421;" horiz-adv-x="1343" d="M164 485v463q0 242 143 379t387 137q216 0 359 -125q147 -123 147 -340v-20h-20v20q0 205 -142 326q-137 119 -344 119q-236 0 -373 -132t-137 -364v-463q0 -232 137 -363.5t373 -131.5q207 0 344 119q142 121 142 325v21h20v-21q0 -216 -147 -342q-144 -123 -359 -123 q-244 0 -387 137t-143 379z" />
<glyph unicode="&#x422;" horiz-adv-x="1105" d="M61 1413v21h983v-21h-481v-1413h-20v1413h-482z" />
<glyph unicode="&#x423;" horiz-adv-x="1120" d="M41 1423v11h18l537 -1057l465 1057h18v-11l-628 -1423h-19v10l154 344z" />
<glyph unicode="&#x424;" horiz-adv-x="1581" d="M123 639v152q0 209 138 328.5t374 119.5h145v195h21v-195h145q236 0 374 -119.5t138 -328.5v-152q0 -210 -138 -329.5t-374 -119.5h-145v-215h-21v215h-145q-236 0 -374 119.5t-138 329.5zM143 639q0 -200 132 -314t360 -114h145v1008h-145q-228 0 -360 -114t-132 -314 v-152zM801 211h145q228 0 360 114t132 314v152q0 200 -132 314t-360 114h-145v-1008z" />
<glyph unicode="&#x425;" horiz-adv-x="1200" d="M82 0v10l504 711l-504 702v11h18l500 -699l500 699h18v-11l-504 -704l504 -709v-10h-18l-500 705l-500 -705h-18z" />
<glyph unicode="&#x426;" horiz-adv-x="1456" d="M205 0v1434h20v-1414h922v1414h20v-1414h197v-327h-21v307h-1138z" />
<glyph unicode="&#x427;" horiz-adv-x="1288" d="M143 1057v377h21v-377q0 -408 475 -408q227 0 424 84v701h20v-1434h-20v709q-192 -80 -424 -80q-496 0 -496 428z" />
<glyph unicode="&#x428;" horiz-adv-x="1921" d="M205 0v1434h20v-1414h725v1414h21v-1414h725v1414h20v-1434h-1511z" />
<glyph unicode="&#x429;" horiz-adv-x="2004" d="M205 0v1434h20v-1414h725v1414h21v-1414h725v1414h20v-1414h197v-327h-21v307h-1687z" />
<glyph unicode="&#x42a;" horiz-adv-x="1460" d="M41 1413v21h399v-615h533q176 0 275.5 -109.5t99.5 -299.5t-99.5 -300t-275.5 -110h-553v1413h-379zM440 20h533q165 0 259.5 104.5t94.5 285.5t-94.5 285t-259.5 104h-533v-779z" />
<glyph unicode="&#x42b;" horiz-adv-x="1720" d="M205 0v1434h20v-615h533q176 0 275.5 -109.5t99.5 -299.5t-99.5 -300t-275.5 -110h-553zM225 20h533q165 0 259.5 104.5t94.5 285.5t-94.5 285t-259.5 104h-533v-779zM1495 0v1434h21v-1434h-21z" />
<glyph unicode="&#x42c;" horiz-adv-x="1245" d="M205 0v1434h20v-615h533q176 0 275.5 -109.5t99.5 -299.5t-99.5 -300t-275.5 -110h-553zM225 20h533q165 0 259.5 104.5t94.5 285.5t-94.5 285t-259.5 104h-533v-779z" />
<glyph unicode="&#x42d;" horiz-adv-x="1343" d="M143 434v21h21v-21q0 -204 139 -325q140 -119 346 -119q236 0 373 131.5t137 363.5v224h-708v20h708v219q0 232 -137 364t-373 132q-206 0 -346 -119q-139 -121 -139 -326v-20h-21v20q0 215 146 340t360 125q244 0 387 -137q144 -138 144 -379v-463q0 -241 -144 -379 q-143 -137 -387 -137q-213 0 -360 123q-146 128 -146 342z" />
<glyph unicode="&#x42e;" horiz-adv-x="1843" d="M205 0v1434h20v-705h455v248q0 228 133.5 357.5t366.5 129.5q230 0 364.5 -130t134.5 -357v-520q0 -228 -134.5 -358t-364.5 -130q-232 0 -366 130t-134 358v252h-455v-709h-20zM700 457q0 -219 129 -343t351 -124t350.5 124t128.5 343v520q0 219 -128.5 343t-350.5 124 t-351 -124t-129 -343v-520z" />
<glyph unicode="&#x42f;" horiz-adv-x="1263" d="M106 0v10l402 625q-182 0 -279.5 105.5t-97.5 293.5q0 185 97.5 292.5t267.5 107.5h563v-1434h-21v635h-503l-410 -635h-19zM152 1034q0 -174 92 -276.5t252 -102.5h542v758h-542q-160 0 -252 -102.5t-92 -276.5z" />
<glyph unicode="&#x430;" d="M113 262q0 152 109 230.5t317 78.5h335v162q0 134 -89.5 214.5t-252.5 80.5q-157 0 -248 -81t-91 -214h-21q0 143 95 229.5t265 86.5q175 0 269 -85.5t94 -230.5v-733h-21v170q-213 -195 -432 -195q-148 0 -238.5 74.5t-90.5 212.5zM133 262q0 -130 86 -198t223 -68 q211 0 432 203v352h-335q-197 0 -301.5 -73.5t-104.5 -215.5z" />
<glyph unicode="&#x431;" horiz-adv-x="1085" d="M154 356v383q0 200 78 314.5t260 167.5l223 65q90 26 126 59t36 85v14h20v-14q0 -62 -36.5 -98t-139.5 -66l-223 -66q-172 -51 -248 -160t-76 -301v-43q196 217 418 217q168 0 262 -105t94 -276v-176q0 -174 -103 -277.5t-294 -103.5q-187 0 -292 105t-105 276zM174 356 q0 -162 100.5 -261t276.5 -99q180 0 278.5 98t98.5 262v176q0 163 -89 262t-247 99q-212 0 -418 -225v-312z" />
<glyph unicode="&#x432;" horiz-adv-x="1085" d="M184 0v1024h459q129 0 199.5 -68t70.5 -190q0 -208 -178 -248q102 -12 162.5 -78t60.5 -178q0 -122 -72.5 -192t-201.5 -70h-500zM205 20h473q121 0 190.5 65.5t69.5 176.5t-69 176.5t-191 65.5h-473v-484zM205 524h446q110 0 175 65t65 175q0 114 -65 177t-185 63h-436 v-480z" />
<glyph unicode="&#x433;" horiz-adv-x="911" d="M184 0v1024h625v-20h-604v-1004h-21z" />
<glyph unicode="&#x434;" horiz-adv-x="1249" d="M78 20h88q52 66 88 127q37 68 63.5 192.5t26.5 276.5v408h653v-1004h160v-299h-20v279h-1039v-279h-20v299zM195 20h782v984h-612v-388q0 -157 -29 -292q-27 -124 -57 -179q-30 -52 -84 -125z" />
<glyph unicode="&#x435;" d="M137 356v312q0 171 105.5 276t292.5 105q191 0 294 -103.5t103 -277.5v-156h-774v-156q0 -162 100.5 -261t276.5 -99q163 0 257.5 81.5t108.5 221.5h21q-12 -151 -112.5 -237.5t-274.5 -86.5q-187 0 -292.5 105t-105.5 276zM158 532h753v136q0 164 -98 262t-278 98 q-176 0 -276.5 -99t-100.5 -261v-136z" />
<glyph unicode="&#x436;" horiz-adv-x="1572" d="M102 0v10l363 510l-348 494v10h18l350 -496h291v496h21v-496h288l353 496h18v-10l-348 -494l362 -510v-10h-18l-360 508h-295v-508h-21v508h-297l-358 -508h-19z" />
<glyph unicode="&#x437;" horiz-adv-x="1042" d="M129 309h21q4 -146 108 -229.5t277 -83.5q167 0 260.5 74t93.5 204q0 110 -84 172t-232 62h-129v20h134q128 0 201 63t73 173q0 120 -87 192t-245 72q-157 0 -252.5 -83.5t-99.5 -229.5h-21q6 155 107 244.5t266 89.5q164 0 258 -79t94 -206q0 -105 -62 -171.5 t-161 -72.5q118 -11 189 -75.5t71 -170.5q0 -140 -98 -219.5t-276 -79.5q-184 0 -292 88t-114 246z" />
<glyph unicode="&#x438;" horiz-adv-x="1175" d="M184 0v1024h21v-989l766 989h20v-1024h-20v989l-766 -989h-21z" />
<glyph unicode="&#x439;" horiz-adv-x="1175" d="M184 0v1024h21v-989l766 989h20v-1024h-20v989l-766 -989h-21zM291 1450v25h20v-23q0 -122 75.5 -192t201.5 -70t201 70t75 192v23h21v-25q0 -130 -81 -205.5t-216 -75.5q-136 0 -216.5 75.5t-80.5 205.5z" />
<glyph unicode="&#x43a;" horiz-adv-x="1019" d="M184 0v1024h21v-496h270l410 496h18v-10l-407 -494l422 -510v-10h-19l-418 508h-276v-508h-21z" />
<glyph unicode="&#x43b;" horiz-adv-x="1120" d="M41 0v20h4q134 0 189 137.5t55 444.5v422h647v-1024h-21v1004h-606v-402q0 -320 -60 -461t-204 -141h-4z" />
<glyph unicode="&#x43c;" horiz-adv-x="1353" d="M184 0v1024h21l467 -575l477 575h20v-1024h-20v989l-467 -561h-20l-457 561v-989h-21z" />
<glyph unicode="&#x43d;" horiz-adv-x="1155" d="M184 0v1024h21v-502h745v502h21v-1024h-21v502h-745v-502h-21z" />
<glyph unicode="&#x43e;" d="M137 356v312q0 171 105.5 276t292.5 105q191 0 294 -103.5t103 -277.5v-312q0 -174 -103 -277.5t-294 -103.5q-187 0 -292.5 105t-105.5 276zM158 356q0 -162 100.5 -261t276.5 -99q180 0 278 98t98 262v312q0 164 -98 262t-278 98q-176 0 -276.5 -99t-100.5 -261v-312z " />
<glyph unicode="&#x43f;" horiz-adv-x="1146" d="M184 0v1024h779v-1024h-21v1004h-737v-1004h-21z" />
<glyph unicode="&#x440;" horiz-adv-x="1132" d="M184 -328v1352h21v-193q197 218 418 218q168 0 262 -105t94 -276v-312q0 -171 -94 -276t-262 -105q-221 0 -418 218v-521h-21zM205 221q205 -225 418 -225q158 0 246.5 98.5t88.5 261.5v312q0 163 -88.5 261.5t-246.5 98.5q-213 0 -418 -225v-582z" />
<glyph unicode="&#x441;" horiz-adv-x="1060" d="M137 356v312q0 171 105.5 276t292.5 105q182 0 289.5 -95t107.5 -247v-9h-21v9q0 143 -101 232t-275 89q-176 0 -276.5 -99t-100.5 -261v-312q0 -162 100.5 -261t276.5 -99q174 0 275 90.5t101 235.5v10h21v-10q0 -155 -107 -251t-290 -96q-187 0 -292.5 105t-105.5 276z " />
<glyph unicode="&#x442;" horiz-adv-x="925" d="M61 1004v20h803v-20h-391v-1004h-20v1004h-392z" />
<glyph unicode="&#x443;" horiz-adv-x="1003" d="M61 1014v10h19l422 -1001l422 1001h18v-10l-565 -1342h-19v11l134 317z" />
<glyph unicode="&#x444;" horiz-adv-x="1523" d="M154 279v466q0 138 73 221t205 83q170 0 320 -166v561h20v-561q150 166 320 166q132 0 205 -83t73 -221v-466q0 -138 -73 -221t-205 -83q-170 0 -320 166v-469h-20v469q-150 -166 -320 -166q-132 0 -205 83t-73 221zM174 279q0 -128 68 -205.5t192 -77.5q163 0 318 174 v684q-155 174 -318 174q-124 0 -192 -77.5t-68 -205.5v-466zM772 170q155 -174 318 -174q124 0 192 77.5t68 205.5v466q0 128 -68 205.5t-192 77.5q-163 0 -318 -174v-684z" />
<glyph unicode="&#x445;" horiz-adv-x="1024" d="M102 0v10l398 502l-396 502v10h19l389 -494l389 494h19v-10l-396 -502l398 -502v-10h-19l-391 496l-391 -496h-19z" />
<glyph unicode="&#x446;" horiz-adv-x="1214" d="M184 0v1024h21v-1004h737v1004h21v-1004h159v-299h-20v279h-918z" />
<glyph unicode="&#x447;" horiz-adv-x="1064" d="M123 719v305h20v-305q0 -140 97.5 -213.5t267.5 -73.5q195 0 352 53v539h21v-1024h-21v463q-159 -51 -352 -51q-182 0 -283.5 78.5t-101.5 228.5z" />
<glyph unicode="&#x448;" horiz-adv-x="1527" d="M184 0v1024h21v-1004h549v1004h20v-1004h549v1004h20v-1024h-1159z" />
<glyph unicode="&#x449;" horiz-adv-x="1595" d="M184 0v1024h21v-1004h549v1004h20v-1004h549v1004h20v-1004h160v-299h-20v279h-1299z" />
<glyph unicode="&#x44a;" horiz-adv-x="1193" d="M20 1004v20h338v-408h433q151 0 236 -83t85 -226q0 -142 -85 -224.5t-236 -82.5h-453v1004h-318zM358 20h433q140 0 220.5 78t80.5 209q0 134 -80 211.5t-221 77.5h-433v-576z" />
<glyph unicode="&#x44b;" horiz-adv-x="1411" d="M184 0v1024h21v-408h432q151 0 236 -83t85 -226q0 -142 -85 -224.5t-236 -82.5h-453zM205 20h432q140 0 220.5 78t80.5 209q0 134 -80 211.5t-221 77.5h-432v-576zM1206 0v1024h21v-1024h-21z" />
<glyph unicode="&#x44c;" horiz-adv-x="1060" d="M184 0v1024h21v-408h452q151 0 236.5 -83t85.5 -226q0 -142 -85.5 -224.5t-236.5 -82.5h-473zM205 20h452q140 0 220.5 78t80.5 209q0 134 -80 211.5t-221 77.5h-452v-576z" />
<glyph unicode="&#x44d;" horiz-adv-x="1073" d="M129 332h21q0 -151 102 -243.5t280 -92.5t280.5 100t102.5 266v138h-493v20h493v142q0 166 -102.5 266t-280.5 100q-176 0 -279 -91t-103 -239h-21q0 156 108.5 253.5t294.5 97.5q191 0 297.5 -106t106.5 -281v-300q0 -175 -106.5 -281t-297.5 -106q-187 0 -295 98.5 t-108 258.5z" />
<glyph unicode="&#x44e;" horiz-adv-x="1468" d="M184 0v1024h21v-502h350v154q0 169 102 271t285 102q185 0 287 -101.5t102 -271.5v-328q0 -170 -102 -271.5t-287 -101.5q-183 0 -285 102t-102 271v154h-350v-502h-21zM575 348q0 -160 98.5 -256t268.5 -96q176 0 272.5 96.5t96.5 255.5v328q0 159 -96.5 255.5 t-272.5 96.5q-170 0 -268.5 -96t-98.5 -256v-328z" />
<glyph unicode="&#x44f;" horiz-adv-x="1062" d="M123 0v10l291 443q-122 7 -191 84t-69 202q0 131 77 208t211 77h437v-1024h-21v453h-422l-295 -453h-18zM174 737q0 -124 70.5 -195t197.5 -71h416v533h-416q-127 0 -197.5 -71.5t-70.5 -195.5z" />
<glyph unicode="&#x451;" d="M137 356v312q0 171 105.5 276t292.5 105q191 0 294 -103.5t103 -277.5v-156h-774v-156q0 -162 100.5 -261t276.5 -99q163 0 257.5 81.5t108.5 221.5h21q-12 -151 -112.5 -237.5t-274.5 -86.5q-187 0 -292.5 105t-105.5 276zM158 532h753v136q0 164 -98 262t-278 98 q-176 0 -276.5 -99t-100.5 -261v-136zM354 1219v225h21v-225h-21zM698 1219v225h21v-225h-21z" />
<glyph unicode="&#x452;" horiz-adv-x="1185" d="M47 1161v21h186v262h21v-262h522v-21h-522v-520q193 217 418 217q156 0 252 -99t96 -278v-590q0 -118 -60.5 -180.5t-173.5 -62.5l-57 4v20q36 -4 57 -4q101 0 157 57.5t56 165.5v582q0 175 -90 270t-237 95q-228 0 -418 -228v-610h-21v1161h-186z" />
<glyph unicode="&#x453;" horiz-adv-x="911" d="M184 0v1024h625v-20h-604v-1004h-21zM440 1208l260 287h19v-10l-252 -277h-27z" />
<glyph unicode="&#x454;" horiz-adv-x="1073" d="M137 362v300q0 175 106.5 281t297.5 106q186 0 294.5 -97.5t108.5 -253.5h-20q0 148 -103.5 239t-279.5 91q-178 0 -280.5 -100t-102.5 -266v-142h493v-20h-493v-138q0 -166 102.5 -266t280.5 -100t280.5 92.5t102.5 243.5h20q0 -160 -108 -258.5t-295 -98.5 q-191 0 -297.5 106t-106.5 281z" />
<glyph unicode="&#x455;" horiz-adv-x="1071" d="M123 334h20q0 -120 64 -199q115 -139 344 -139q165 0 260.5 71t95.5 185q0 96 -60.5 147t-213.5 90l-209 56q-142 37 -198 91.5t-56 156.5q0 113 97.5 184.5t264.5 71.5q178 0 283 -90t105 -259h-21q0 160 -98.5 244t-268.5 84q-159 0 -250.5 -64.5t-91.5 -170.5 q0 -92 52.5 -142.5t183.5 -85.5l209 -55q165 -44 229 -98t64 -160q0 -126 -99 -201.5t-278 -75.5q-82 -2 -156.5 18t-135.5 62t-98 114t-38 165z" />
<glyph unicode="&#x456;" horiz-adv-x="389" d="M184 0v1024h21v-1024h-21zM184 1219v225h21v-225h-21z" />
<glyph unicode="&#x457;" horiz-adv-x="389" d="M12 1219v225h21v-225h-21zM184 0v1024h21v-1024h-21zM356 1219v225h21v-225h-21z" />
<glyph unicode="&#x458;" horiz-adv-x="389" d="M-86 -328q36 -4 57 -4q101 0 157 57.5t56 165.5v1133h21v-1133q0 -118 -60.5 -180.5t-173.5 -62.5l-57 4v20zM184 1219v225h21v-225h-21z" />
<glyph unicode="&#x459;" horiz-adv-x="1720" d="M41 0v20h4q134 0 189 137.5t55 444.5v422h616v-408h412q151 0 236 -83t85 -226q0 -142 -85 -224.5t-236 -82.5h-432v1004h-576v-402q0 -320 -60 -461t-204 -141h-4zM905 20h412q140 0 220.5 78t80.5 209q0 134 -80 211.5t-221 77.5h-412v-576z" />
<glyph unicode="&#x45a;" horiz-adv-x="1703" d="M184 0v1024h21v-455h684v455h20v-455h416q139 0 218 -76.5t79 -207.5t-79 -208t-218 -77h-436v549h-684v-549h-21zM909 20h416q129 0 203 71t74 194t-74 193.5t-203 70.5h-416v-529z" />
<glyph unicode="&#x45b;" horiz-adv-x="1155" d="M18 1161v21h187v262h20v-262h523v-21h-523v-520q193 217 418 217q156 0 252 -99t96 -278v-481h-20v473q0 175 -90.5 270t-237.5 95q-227 0 -418 -228v-610h-20v1161h-187z" />
<glyph unicode="&#x45c;" horiz-adv-x="1019" d="M184 0v1024h21v-496h270l410 496h18v-10l-407 -494l422 -510v-10h-19l-418 508h-276v-508h-21zM473 1208l260 287h19v-10l-252 -277h-27z" />
<glyph unicode="&#x45e;" horiz-adv-x="1003" d="M61 1014v10h19l422 -1001l422 1001h18v-10l-565 -1342h-19v11l134 317zM205 1450v25h20v-23q0 -122 75.5 -192t201.5 -70t201 70t75 192v23h21v-25q0 -130 -81 -205.5t-216 -75.5q-136 0 -216.5 75.5t-80.5 205.5z" />
<glyph unicode="&#x45f;" horiz-adv-x="1146" d="M184 0v1024h21v-1004h737v1004h21v-1024h-379v-258h-21v258h-379z" />
<glyph unicode="&#x490;" horiz-adv-x="1122" d="M205 0v1434h794v266h21v-287h-795v-1413h-20z" />
<glyph unicode="&#x491;" horiz-adv-x="901" d="M184 0v1024h594v248h21v-268h-594v-1004h-21z" />
<glyph unicode="&#x2000;" horiz-adv-x="966" />
<glyph unicode="&#x2001;" horiz-adv-x="1933" />
<glyph unicode="&#x2002;" horiz-adv-x="966" />
<glyph unicode="&#x2003;" horiz-adv-x="1933" />
<glyph unicode="&#x2004;" horiz-adv-x="644" />
<glyph unicode="&#x2005;" horiz-adv-x="483" />
<glyph unicode="&#x2006;" horiz-adv-x="322" />
<glyph unicode="&#x2007;" horiz-adv-x="322" />
<glyph unicode="&#x2008;" horiz-adv-x="241" />
<glyph unicode="&#x2009;" horiz-adv-x="386" />
<glyph unicode="&#x200a;" horiz-adv-x="107" />
<glyph unicode="&#x2010;" horiz-adv-x="880" d="M143 631v20h594v-20h-594z" />
<glyph unicode="&#x2011;" horiz-adv-x="880" d="M143 631v20h594v-20h-594z" />
<glyph unicode="&#x2012;" horiz-adv-x="880" d="M143 631v20h594v-20h-594z" />
<glyph unicode="&#x2013;" horiz-adv-x="1169" d="M143 631v20h883v-20h-883z" />
<glyph unicode="&#x2014;" horiz-adv-x="1626" d="M143 631v20h1340v-20h-1340z" />
<glyph unicode="&#x2018;" horiz-adv-x="325" d="M51 1024v10l174 410h19v-10l-174 -410h-19z" />
<glyph unicode="&#x2019;" horiz-adv-x="325" d="M51 1024v10l174 410h19v-10l-174 -410h-19z" />
<glyph unicode="&#x201a;" horiz-adv-x="346" d="M51 -158l174 410h19v-10l-174 -410h-19v10z" />
<glyph unicode="&#x201c;" horiz-adv-x="661" d="M51 1024v10l174 410h19v-10l-174 -410h-19zM387 1024v10l174 410h19v-10l-174 -410h-19z" />
<glyph unicode="&#x201d;" horiz-adv-x="661" d="M51 1024v10l174 410h19v-10l-174 -410h-19zM387 1024v10l174 410h19v-10l-174 -410h-19z" />
<glyph unicode="&#x201e;" horiz-adv-x="681" d="M51 -158l174 410h19v-10l-174 -410h-19v10zM387 -158l174 410h19v-10l-174 -410h-19v10z" />
<glyph unicode="&#x2020;" horiz-adv-x="1056" d="M82 952v21h436v471h21v-471h436v-21h-436v-1280h-21v1280h-436z" />
<glyph unicode="&#x2021;" horiz-adv-x="1056" d="M82 360v21h436v571h-436v21h436v471h21v-471h436v-21h-436v-571h436v-21h-436v-688h-21v688h-436z" />
<glyph unicode="&#x2022;" horiz-adv-x="636" d="M143 649v13q0 81 46.5 125t129.5 44q82 0 128.5 -44t46.5 -125v-13q0 -79 -47.5 -124.5t-127.5 -45.5q-82 0 -129 44.5t-47 125.5z" />
<glyph unicode="&#x2026;" horiz-adv-x="1314" d="M164 0v252h20v-252h-20zM647 0v252h21v-252h-21zM1130 0v252h21v-252h-21z" />
<glyph unicode="&#x202f;" horiz-adv-x="386" />
<glyph unicode="&#x2030;" horiz-adv-x="2166" d="M102 987v203q0 124 75.5 199t209.5 75q137 0 212 -74t75 -200v-203q0 -126 -75 -200t-212 -74q-134 0 -209.5 75t-75.5 199zM123 985q0 -114 70.5 -183t193.5 -69q126 0 196 69.5t70 182.5v205q0 115 -70 184.5t-196 69.5q-123 0 -193.5 -70t-70.5 -184v-205zM352 0v10 l789 1424h18v-11l-788 -1423h-19zM844 244v202q0 124 75 199.5t209 75.5q137 0 212 -74.5t75 -200.5v-202q0 -126 -75 -200.5t-212 -74.5q-134 0 -209 75.5t-75 199.5zM864 242q0 -114 70.5 -183t193.5 -69q126 0 196.5 69.5t70.5 182.5v204q0 115 -70.5 184.5t-196.5 69.5 q-123 0 -193.5 -70t-70.5 -184v-204zM1493 244v202q0 124 75.5 199.5t209.5 75.5q137 0 211.5 -74.5t74.5 -200.5v-202q0 -126 -74.5 -200.5t-211.5 -74.5q-134 0 -209.5 75.5t-75.5 199.5zM1513 242q0 -114 71 -183t194 -69q126 0 196 69.5t70 182.5v204q0 115 -70 184.5 t-196 69.5q-123 0 -194 -70t-71 -184v-204z" />
<glyph unicode="&#x2039;" horiz-adv-x="677" d="M123 541l397 415h21v-10l-387 -405l385 -404v-10h-21z" />
<glyph unicode="&#x203a;" horiz-adv-x="677" d="M137 946v10h21l397 -415l-395 -414h-21v10l385 404z" />
<glyph unicode="&#x2044;" horiz-adv-x="643" d="M-82 0v10l789 1424h18v-11l-788 -1423h-19z" />
<glyph unicode="&#x205f;" horiz-adv-x="483" />
<glyph unicode="&#x20ac;" horiz-adv-x="1355" d="M61 551v20h175v289h-175v21h175v67q0 241 133.5 378.5t365.5 137.5q201 0 338 -125q139 -124 139 -340v-20h-20v20q0 205 -133 326q-131 119 -324 119q-222 0 -350.5 -132t-128.5 -364v-67h612v-21h-612v-289h612v-20h-612v-66q0 -232 128.5 -363.5t350.5 -131.5 q193 0 324 119q133 121 133 325v21h20v-21q0 -215 -139 -342q-138 -123 -338 -123q-232 0 -365.5 137.5t-133.5 378.5v66h-175z" />
<glyph unicode="&#x2122;" horiz-adv-x="1320" d="M41 1413v21h463v-21h-221v-641h-21v641h-221zM598 772v662h20l265 -367l268 367h20v-662h-20v629l-258 -352h-21l-254 352v-629h-20z" />
<glyph unicode="&#x2202;" horiz-adv-x="1085" d="M102 317l19 215q18 177 119 279t270 102q221 0 399 -217q13 232 13 254q0 231 -104 354t-306 123q-123 0 -229 -32l2 22q102 31 227 31q430 0 430 -498q0 -84 -43 -594q-14 -174 -125.5 -277.5t-298.5 -103.5q-176 0 -274.5 93.5t-98.5 248.5zM123 322q0 -149 94 -237.5 t262 -88.5q174 0 280 98t120 262l28 312q-185 225 -399 225q-158 0 -253.5 -97t-113.5 -264q-18 -193 -18 -210z" />
<glyph unicode="&#x2206;" horiz-adv-x="1331" d="M61 0v10l592 1424h25l592 -1424v-10h-1209zM88 20h1155l-577 1391z" />
<glyph unicode="&#x220f;" horiz-adv-x="1380" d="M205 -154v1588h971v-1588h-21v1567h-930v-1567h-20z" />
<glyph unicode="&#x2211;" horiz-adv-x="1103" d="M123 -133l444 778l-444 768v21h835v-21h-808l444 -768l-444 -778h831v-21h-858v21z" />
<glyph unicode="&#x221a;" horiz-adv-x="1198" d="M23 774v21h266l358 -916l498 1753h18v-10l-504 -1776h-20l-365 928h-251z" />
<glyph unicode="&#x221e;" horiz-adv-x="1716" d="M143 641q0 159 85 257.5t221 98.5q75 0 139 -43q61 -37 112 -94q52 -59 134 -168l24 -33l25 33q98 131 131 168q52 60 118.5 98.5t135.5 38.5q135 0 220 -98.5t85 -257.5t-85 -257.5t-220 -98.5q-74 0 -142 41q-67 45 -112 96q-33 37 -131 168l-25 33l-24 -33 q-82 -109 -134 -168q-48 -59 -115 -98t-136 -39q-136 0 -221 98.5t-85 257.5zM164 641q0 -150 79 -243t208 -93q89 0 166.5 64.5t199.5 230.5l31 41l-31 41q-125 162 -196 225q-76 70 -170 70q-128 0 -207.5 -93.5t-79.5 -242.5zM868 641l31 -41q117 -161 197.5 -228 t169.5 -67q129 0 207.5 93t78.5 243q0 149 -79 242.5t-207 93.5q-94 0 -170 -70q-74 -66 -197 -225z" />
<glyph unicode="&#x222b;" horiz-adv-x="679" d="M-20 -307h63q132 0 209.5 83t77.5 228v1098q0 154 81.5 243t221.5 89h67v-21h-63q-132 0 -209.5 -83t-77.5 -228v-1098q0 -154 -81.5 -243t-221.5 -89h-67v21z" />
<glyph unicode="&#x2248;" horiz-adv-x="923" d="M102 424q103 158 203 158q55 0 141 -62l46 -33q73 -55 129 -55q89 0 184 150l16 -13q-95 -157 -203 -157q-56 0 -141 61l-45 33q-76 55 -129 55q-90 0 -184 -149zM102 854q103 158 203 158q55 0 141 -62l46 -32q74 -56 129 -56q89 0 184 150l16 -13q-95 -157 -203 -157 q-56 0 -141 61l-45 33q-76 55 -129 55q-90 0 -184 -149z" />
<glyph unicode="&#x2260;" horiz-adv-x="1097" d="M143 0v10l252 400h-252v20h267l268 424h-535v20h547l246 388h18v-11l-239 -377h239v-20h-252l-268 -424h520v-20h-534l-258 -410h-19z" />
<glyph unicode="&#x2264;" horiz-adv-x="942" d="M102 78v20h738v-20h-738zM102 651v21l717 397h21v-10l-715 -397l715 -398v-10h-21z" />
<glyph unicode="&#x2265;" horiz-adv-x="942" d="M102 78v20h738v-20h-738zM102 254v10l715 398l-715 397v10h21l717 -397v-21l-717 -397h-21z" />
<glyph unicode="&#x25ca;" horiz-adv-x="1073" d="M123 717l403 717h21l403 -717l-403 -717h-21zM147 717l390 -697l389 697l-389 696z" />
<glyph unicode="&#x25fc;" horiz-adv-x="1024" d="M0 0v1024h1024v-1024h-1024z" />
</font>
</defs>
</svg>
